<?xml version="1.0" encoding="utf-8"?>
<!-- Generator: Adobe Illustrator 24.1.2, SVG Export Plug-In . SVG Version: 6.00 Build 0)  -->
<svg version="1.1" id="Icons" xmlns="http://www.w3.org/2000/svg" xmlns:xlink="http://www.w3.org/1999/xlink" x="0px" y="0px"
	 viewBox="0 0 30 30" style="enable-background:new 0 0 30 30;" xml:space="preserve">
<style type="text/css">
	.st0{fill:#F16957;}
	.st1{fill:#FFFFFF;}
</style>
<g id="Vimeo">
	<path id="Background" class="st0" d="M0,14.4C0,7.6,0,4.2,2.1,2.1S7.6,0,14.4,0h1.2c6.8,0,10.2,0,12.3,2.1S30,7.6,30,14.4v1.2
		c0,6.8,0,10.2-2.1,12.3C25.8,30,22.4,30,15.6,30h-1.2c-6.8,0-10.2,0-12.3-2.1S0,22.4,0,15.6V14.4z"/>
	<path id="Vimeo-2" class="st1" d="M24,11.3c-0.1,1.8-1.3,4.3-3.8,7.4c-2.5,3.3-4.7,4.9-6.4,4.9c-1.1,0-2-1-2.8-3
		c-0.5-1.8-1-3.7-1.5-5.5c-0.6-2-1.2-3-1.8-3c-0.1,0-0.6,0.3-1.5,0.9L5.4,12c0.9-0.8,1.8-1.6,2.7-2.4c1.2-1.1,2.1-1.6,2.8-1.7
		c1.4-0.1,2.3,0.8,2.7,3c0.4,2.3,0.6,3.7,0.8,4.3c0.4,1.9,0.9,2.8,1.4,2.8c0.4,0,1-0.6,1.8-1.8c0.8-1.2,1.2-2.2,1.3-2.8
		c0.1-1.1-0.3-1.6-1.3-1.6c-0.5,0-0.9,0.1-1.4,0.3c0.9-3,2.7-4.4,5.2-4.4C23.2,7.7,24.1,8.9,24,11.3z"/>
</g>
</svg>
