<?xml version="1.0" encoding="utf-8"?>
<!-- Generator: Adobe Illustrator 24.1.2, SVG Export Plug-In . SVG Version: 6.00 Build 0)  -->
<svg version="1.1" id="Icons" xmlns="http://www.w3.org/2000/svg" xmlns:xlink="http://www.w3.org/1999/xlink" x="0px" y="0px"
	 viewBox="0 0 30 30" style="enable-background:new 0 0 30 30;" xml:space="preserve">
<style type="text/css">
	.st0{fill:#F16957;}
</style>
<g id="Twitter">
	<path id="Twitter-2" class="st0" d="M9.4,27.2c11.3,0,17.5-9.4,17.5-17.5c0-0.3,0-0.5,0-0.8C28.1,8,29.2,6.9,30,5.7
		c-1.1,0.5-2.3,0.8-3.5,1c1.3-0.8,2.2-2,2.7-3.4C28,4,26.6,4.5,25.3,4.8c-2.3-2.5-6.2-2.6-8.7-0.2C15,6,14.3,8.2,14.8,10.4
		C9.8,10.1,5.2,7.8,2.1,3.9C0.5,6.7,1.3,10.3,4,12.1c-1,0-1.9-0.3-2.8-0.8v0.1c0,2.9,2.1,5.5,4.9,6c-0.9,0.2-1.9,0.3-2.8,0.1
		c0.8,2.5,3.1,4.2,5.7,4.3c-2.2,1.7-4.9,2.6-7.7,2.6c-0.5,0-1,0-1.5-0.1C2.8,26.2,6.1,27.2,9.4,27.2"/>
</g>
</svg>
