<?xml version="1.0" encoding="utf-8"?>
<!-- Generator: Adobe Illustrator 24.1.2, SVG Export Plug-In . SVG Version: 6.00 Build 0)  -->
<svg version="1.1" id="Icons" xmlns="http://www.w3.org/2000/svg" xmlns:xlink="http://www.w3.org/1999/xlink" x="0px" y="0px"
	 viewBox="0 0 30 30" style="enable-background:new 0 0 30 30;" xml:space="preserve">
<style type="text/css">
	.st0{fill:#F16957;}
	.st1{fill-rule:evenodd;clip-rule:evenodd;fill:#FFFFFF;}
</style>
<g id="Telegram">
	<path id="Background" class="st0" d="M0,14.4C0,7.6,0,4.2,2.1,2.1S7.6,0,14.4,0h1.2c6.8,0,10.2,0,12.3,2.1S30,7.6,30,14.4v1.2
		c0,6.8,0,10.2-2.1,12.3S22.4,30,15.6,30h-1.2c-6.8,0-10.2,0-12.3-2.1S0,22.4,0,15.6V14.4z"/>
	<path id="Telegram-2" class="st1" d="M6.2,14.7c4.8-2.1,8-3.5,9.6-4.1c4.6-1.9,5.5-2.2,6.1-2.2c0.2,0,0.5,0.1,0.6,0.2
		c0.1,0.1,0.2,0.3,0.2,0.4c0,0.2,0,0.4,0,0.6c-0.2,2.6-1.3,8.9-1.9,11.8c-0.2,1.2-0.7,1.6-1.1,1.7c-1,0.1-1.7-0.6-2.6-1.2
		c-1.4-0.9-2.3-1.5-3.7-2.5c-1.6-1.1-0.6-1.7,0.4-2.6c0.2-0.3,4.5-4.1,4.5-4.4c0-0.1,0-0.2-0.1-0.3C18.3,12,18.1,12,18,12
		c-0.1,0-2.5,1.6-6.9,4.6c-0.7,0.5-1.3,0.7-1.8,0.7c-0.6,0-1.7-0.3-2.6-0.6c-1-0.3-1.8-0.5-1.8-1.1C5,15.3,5.4,15,6.2,14.7z"/>
</g>
</svg>
