<?xml version="1.0" encoding="utf-8"?>
<!-- Generator: Adobe Illustrator 24.1.2, SVG Export Plug-In . SVG Version: 6.00 Build 0)  -->
<svg version="1.1" id="Icons" xmlns="http://www.w3.org/2000/svg" xmlns:xlink="http://www.w3.org/1999/xlink" x="0px" y="0px"
	 viewBox="0 0 30 30" style="enable-background:new 0 0 30 30;" xml:space="preserve">
<style type="text/css">
	.st0{fill:#F16957;}
	.st1{fill:#FFFFFF;}
</style>
<g id="YouTube">
	<path id="Background" class="st0" d="M0,14.4C0,7.6,0,4.2,2.1,2.1S7.6,0,14.4,0h1.2c6.8,0,10.2,0,12.3,2.1S30,7.6,30,14.4v1.2
		c0,6.8,0,10.2-2.1,12.3S22.4,30,15.6,30h-1.2c-6.8,0-10.2,0-12.3-2.1S0,22.4,0,15.6V14.4z"/>
	<path id="YouTube-2" class="st1" d="M23.1,10.8c-0.2-0.7-0.8-1.3-1.5-1.5c-1.3-0.4-6.7-0.4-6.7-0.4s-5.3,0-6.7,0.4
		c-0.7,0.2-1.3,0.8-1.5,1.5c-0.4,1.3-0.4,4.1-0.4,4.1s0,2.8,0.4,4.1c0.2,0.7,0.8,1.3,1.5,1.5c1.3,0.4,6.7,0.4,6.7,0.4s5.3,0,6.7-0.4
		c0.7-0.2,1.3-0.8,1.5-1.5c0.4-1.3,0.4-4.1,0.4-4.1S23.5,12.1,23.1,10.8z M13.2,17.5v-5.1l4.4,2.6L13.2,17.5z"/>
</g>
</svg>
