<?xml version="1.0" encoding="utf-8"?>
<!-- Generator: Adobe Illustrator 24.1.2, SVG Export Plug-In . SVG Version: 6.00 Build 0)  -->
<svg version="1.1" id="Слой_1" xmlns="http://www.w3.org/2000/svg" xmlns:xlink="http://www.w3.org/1999/xlink" x="0px" y="0px"
	 viewBox="0 0 25 25" style="enable-background:new 0 0 25 25;" xml:space="preserve">
<style type="text/css">
	.st0{fill:#F16957;}
</style>
<path class="st0" d="M25,12.5c0,0.8-0.7,1.4-1.4,1.4h-1.4l0,6.9c0,0.1,0,0.2,0,0.3v0.7c0,0.9-0.8,1.7-1.7,1.7h-0.7c0,0-0.1,0-0.1,0
	c-0.1,0-0.1,0-0.2,0h-1.4h-1c-1,0-1.7-0.8-1.7-1.7v-1V18c0-0.8-0.6-1.4-1.4-1.4h-2.8c-0.8,0-1.4,0.6-1.4,1.4v2.8v1
	c0,0.9-0.8,1.7-1.7,1.7h-1H5.6c-0.1,0-0.1,0-0.2,0c-0.1,0-0.1,0-0.2,0H4.5c-1,0-1.7-0.8-1.7-1.7V17c0,0,0-0.1,0-0.1v-3H1.4
	c-0.8,0-1.4-0.6-1.4-1.4c0-0.4,0.1-0.7,0.4-1l11.1-9.6c0.3-0.3,0.7-0.3,1-0.3s0.7,0.1,0.9,0.3l11.1,9.6C24.9,11.7,25,12.1,25,12.5z"
	/>
</svg>
