<?xml version="1.0" encoding="utf-8"?>
<!-- Generator: Adobe Illustrator 24.1.2, SVG Export Plug-In . SVG Version: 6.00 Build 0)  -->
<svg version="1.1" id="Icons" xmlns="http://www.w3.org/2000/svg" xmlns:xlink="http://www.w3.org/1999/xlink" x="0px" y="0px"
	 viewBox="0 0 36 36" style="enable-background:new 0 0 36 36;" xml:space="preserve">
<style type="text/css">
	.st0{display:none;}
	.st1{display:inline;fill:#193050;}
	.st2{display:inline;}
	.st3{fill:#FFFFFF;}
	.st4{display:inline;fill:#FFFFFF;}
	.st5{fill:#193050;}
	.st6{fill-rule:evenodd;clip-rule:evenodd;fill:#FFFFFF;}
</style>
<g id="Behance" class="st0">
	<circle id="Background" class="st1" cx="18" cy="18" r="18"/>
	<g id="Behance-2" class="st2">
		<path id="Behance-3" class="st3" d="M14.3,11.6c0.5,0,1.1,0,1.6,0.2c0.4,0.1,0.8,0.3,1.2,0.5c0.3,0.2,0.6,0.6,0.8,1
			c0.2,0.5,0.3,1,0.3,1.5c0,0.6-0.1,1.1-0.4,1.6c-0.3,0.5-0.7,0.8-1.2,1c0.7,0.2,1.3,0.6,1.7,1.2c0.4,0.6,0.6,1.3,0.5,2
			c0,0.6-0.1,1.1-0.3,1.7c-0.2,0.5-0.5,0.8-0.9,1.2C17,23.6,16.5,23.9,16,24c-0.5,0.1-1,0.2-1.6,0.2H8.6V11.6H14.3z M14,16.7
			c0.4,0,0.8-0.1,1.2-0.4c0.3-0.3,0.5-0.7,0.5-1.2c0-0.3,0-0.5-0.1-0.7c-0.1-0.2-0.2-0.3-0.4-0.4c-0.2-0.1-0.4-0.2-0.6-0.2
			c-0.2,0-0.5-0.1-0.7-0.1h-2.5v3L14,16.7L14,16.7z M14.1,22.1c0.3,0,0.5,0,0.7-0.1c0.2,0,0.4-0.1,0.6-0.3c0.2-0.1,0.3-0.3,0.4-0.5
			c0.1-0.3,0.2-0.5,0.2-0.8c0.1-0.5-0.1-1-0.5-1.4c-0.4-0.3-0.9-0.4-1.4-0.4h-2.9v3.5L14.1,22.1z"/>
		<path id="Behance-4" class="st3" d="M22.5,22c0.4,0.4,1,0.6,1.5,0.6c0.4,0,0.9-0.1,1.2-0.4c0.3-0.2,0.5-0.5,0.6-0.8H28
			c-0.2,0.9-0.8,1.8-1.5,2.4c-0.7,0.5-1.6,0.7-2.5,0.7c-0.6,0-1.3-0.1-1.9-0.4c-0.5-0.2-1-0.6-1.4-1c-0.4-0.4-0.7-1-0.9-1.5
			c-0.2-0.6-0.3-1.3-0.3-1.9c0-0.7,0.1-1.3,0.3-1.9c0.6-1.8,2.3-3,4.1-2.9c0.7,0,1.3,0.1,1.9,0.5c0.5,0.3,1,0.7,1.4,1.2
			c0.4,0.5,0.6,1.1,0.8,1.7c0.2,0.7,0.2,1.4,0.2,2h-6.3C21.9,20.9,22.1,21.5,22.5,22z M25.2,17.2c-0.4-0.4-0.8-0.5-1.3-0.5
			c-0.3,0-0.7,0.1-0.9,0.2c-0.2,0.1-0.4,0.3-0.6,0.5c-0.1,0.2-0.3,0.4-0.3,0.6c-0.1,0.2-0.1,0.4-0.1,0.6h3.9
			C25.7,18.1,25.5,17.6,25.2,17.2L25.2,17.2z"/>
		<rect id="Behance-5" x="21.4" y="12.4" class="st3" width="4.9" height="1.2"/>
	</g>
</g>
<g id="Facebook" class="st0">
	<circle id="Background_1_" class="st1" cx="18" cy="18" r="18"/>
	<path id="Facebook-2" class="st4" d="M19.4,19.5h3l0.6-3.8h-3.6v-2.4c0-1,0.5-2,2.1-2h1.6V8.1c-1-0.2-1.9-0.2-2.9-0.3
		c-3,0-4.9,1.8-4.9,5.1v2.9h-3.3v3.8h3.3v9.1h4L19.4,19.5z"/>
</g>
<g id="LinkedIn" class="st0">
	<circle id="Background_3_" class="st1" cx="18" cy="18" r="18"/>
	<g id="LinkedIn-2" class="st2">
		<rect id="LinkedIn-3" x="10.5" y="14.3" class="st3" width="3.5" height="11.2"/>
		<path id="LinkedIn-4" class="st3" d="M22.8,14c-1.3-0.1-2.6,0.7-3.2,1.8v-1.6h-3.4v11.2h3.5v-5.6c0-1.5,0.3-2.9,2.1-2.9
			c1.8,0,1.8,1.7,1.8,3v5.5h3.5l-0.1-6C27,16.4,26.4,14,22.8,14z"/>
		<circle id="LinkedIn-5" class="st3" cx="12.2" cy="10.7" r="2"/>
	</g>
</g>
<g id="Telegram">
	<circle id="Background_4_" class="st5" cx="18" cy="18" r="18"/>
	<path id="Telegram-2" class="st6" d="M8.3,17.7c5.2-2.3,8.7-3.8,10.5-4.5c5-2.1,6-2.4,6.7-2.4c0.2,0,0.5,0.1,0.7,0.2
		c0.1,0.1,0.2,0.3,0.3,0.5c0,0.2,0,0.5,0,0.7c-0.3,2.8-1.4,9.7-2,12.9c-0.3,1.3-0.7,1.8-1.2,1.8c-1,0.1-1.8-0.7-2.8-1.4
		c-1.6-1-2.5-1.7-4-2.7c-1.8-1.2-0.6-1.8,0.4-2.9c0.3-0.3,4.9-4.5,4.9-4.8c0-0.1,0-0.2-0.1-0.3c-0.1-0.1-0.2-0.1-0.4,0
		c-0.2,0-2.7,1.7-7.6,5c-0.7,0.5-1.4,0.7-1.9,0.7c-0.6,0-1.9-0.4-2.8-0.7c-1.1-0.4-2-0.6-1.9-1.2C7,18.4,7.4,18,8.3,17.7z"/>
</g>
<g id="YouTube" class="st0">
	<circle id="Background_5_" class="st1" cx="18" cy="18" r="18"/>
	<path id="YouTube-2" class="st4" d="M26.9,13.4c-0.2-0.8-0.8-1.4-1.6-1.6c-1.5-0.4-7.3-0.4-7.3-0.4s-5.8,0-7.3,0.4
		C9.8,12,9.2,12.6,9,13.4c-0.4,1.5-0.4,4.5-0.4,4.5s0,3,0.4,4.5c0.2,0.8,0.8,1.4,1.6,1.6c1.5,0.4,7.3,0.4,7.3,0.4s5.8,0,7.3-0.4
		c0.8-0.2,1.4-0.8,1.6-1.6c0.4-1.5,0.4-4.5,0.4-4.5S27.3,14.9,26.9,13.4z M16.1,20.7v-5.6l4.9,2.8L16.1,20.7z"/>
</g>
<g id="Vimeo" class="st0">
	<path id="Background_6_" class="st1" d="M0,17.3C0,9.1,0,5.1,2.5,2.5S9.1,0,17.3,0h1.4c8.1,0,12.2,0,14.7,2.5S36,9.1,36,17.3v1.4
		c0,8.1,0,12.2-2.5,14.7C30.9,36,26.9,36,18.7,36h-1.4c-8.1,0-12.2,0-14.7-2.5S0,26.9,0,18.7V17.3z"/>
	<path id="Vimeo-2" class="st4" d="M28.8,13.6c-0.1,2.2-1.6,5.1-4.6,8.9c-3,3.9-5.6,5.9-7.7,5.9c-1.3,0-2.4-1.2-3.3-3.6
		c-0.6-2.2-1.2-4.4-1.8-6.6c-0.7-2.4-1.4-3.6-2.1-3.6c-0.2,0-0.8,0.4-1.8,1l-1-1.4c1.1-1,2.2-1.9,3.3-2.9c1.5-1.3,2.6-1.9,3.3-2
		c1.7-0.2,2.8,1,3.2,3.6c0.4,2.7,0.7,4.4,0.9,5.1c0.5,2.3,1.1,3.4,1.7,3.4c0.5,0,1.2-0.7,2.1-2.2c0.9-1.5,1.4-2.6,1.5-3.4
		c0.1-1.3-0.4-1.9-1.5-1.9c-0.6,0-1.1,0.1-1.7,0.4c1.1-3.6,3.2-5.3,6.3-5.2C27.9,9.2,28.9,10.7,28.8,13.6z"/>
</g>
</svg>
