<svg id="Icons" xmlns="http://www.w3.org/2000/svg" viewBox="0 0 36 36"><defs><style>.cls-1{fill:#193050;}.cls-2{fill:#fff;}</style></defs><g id="Vimeo"><path id="Background" class="cls-1" d="M0,17.28C0,9.13,0,5.06,2.53,2.53S9.13,0,17.28,0h1.44c8.15,0,12.22,0,14.75,2.53S36,9.13,36,17.28v1.44c0,8.15,0,12.22-2.53,14.75S26.87,36,18.72,36H17.28C9.13,36,5.06,36,2.53,33.47S0,26.87,0,18.72Z"/><path id="Vimeo-2" class="cls-2" d="M28.8,13.62q-.15,3.26-4.55,8.92-4.55,5.91-7.7,5.91-2,0-3.31-3.6-.88-3.3-1.79-6.6c-.67-2.4-1.39-3.6-2.15-3.6a6.78,6.78,0,0,0-1.76,1l-1-1.35q1.65-1.45,3.25-2.91c1.47-1.26,2.57-1.93,3.31-2q2.61-.26,3.21,3.56.64,4.11.9,5.11c.5,2.28,1,3.41,1.65,3.41s1.17-.74,2.11-2.21a8.85,8.85,0,0,0,1.5-3.37c.14-1.27-.37-1.91-1.5-1.91a4.1,4.1,0,0,0-1.66.37c1.1-3.59,3.19-5.34,6.29-5.24C27.85,9.23,28.93,10.71,28.8,13.62Z"/></g></svg>