<svg id="Icons" xmlns="http://www.w3.org/2000/svg" viewBox="0 0 34 34"><defs><style>.cls-1{fill:#1877f2;}.cls-2{fill:#fff;}.cls-3{fill:#1da1f2;}</style></defs><g id="Facebook"><circle id="Background" class="cls-1" cx="17" cy="17" r="17"/><path id="Facebook-2" class="cls-2" d="M18.3,18.45h2.84l.54-3.55H18.3V12.59a1.76,1.76,0,0,1,2-1.91h1.53v-3a20.66,20.66,0,0,0-2.73-.24c-2.79,0-4.61,1.7-4.61,4.78V14.9H11.39v3.55h3.09V27H18.3Z"/></g><g id="Twitter"><circle id="Background-2" data-name="Background" class="cls-3" cx="17" cy="17" r="17"/><path id="Twitter-2" class="cls-2" d="M14.07,24.45a10,10,0,0,0,10.1-10.09c0-.16,0-.31,0-.46a7.37,7.37,0,0,0,1.77-1.84,7,7,0,0,1-2,.56,3.57,3.57,0,0,0,1.56-2,7.33,7.33,0,0,1-2.25.86,3.55,3.55,0,0,0-6.05,3.23,10,10,0,0,1-7.31-3.7,3.54,3.54,0,0,0,1.1,4.73,3.5,3.5,0,0,1-1.61-.44v0a3.55,3.55,0,0,0,2.85,3.48,3.34,3.34,0,0,1-1.6.06,3.55,3.55,0,0,0,3.32,2.47,7.15,7.15,0,0,1-5.25,1.47,10,10,0,0,0,5.42,1.59"/></g></svg>