<svg id="Слой_1" data-name="Слой 1" xmlns="http://www.w3.org/2000/svg" viewBox="0 0 20 20"><defs><style>.cls-1{fill:#dc2626;}</style></defs><path class="cls-1" d="M10,1.5A8.52,8.52,0,1,0,18.53,10,8.48,8.48,0,0,0,10,1.5Zm0,16.06A7.55,7.55,0,1,1,17.56,10,7.56,7.56,0,0,1,10,17.56Z"/><path class="cls-1" d="M19.33.56a.54.54,0,0,0-.78,0L10,9.2,1.43.53a.56.56,0,0,0-.78,0,.56.56,0,0,0,0,.79L9.2,10,.6,18.68a.54.54,0,0,0,0,.78.59.59,0,0,0,.37.16.62.62,0,0,0,.38-.16L10,10.77l8.7,8.7a.57.57,0,0,0,.38.16.55.55,0,0,0,.37-.94L10.77,10l8.56-8.65A.6.6,0,0,0,19.33.56Z"/></svg>