<svg id="Слой_1" data-name="Слой 1" xmlns="http://www.w3.org/2000/svg" viewBox="0 0 20 20"><defs><style>.cls-1{fill:#dc2626;}</style></defs><path class="cls-1" d="M12.88,7.13a.56.56,0,0,0-.79,0L10,9.22,7.91,7.13a.55.55,0,1,0-.78.78L9.22,10,7.13,12.09a.56.56,0,0,0,0,.79A.58.58,0,0,0,7.5,13a.61.61,0,0,0,.38-.15L10,10.78l2.09,2.1a.61.61,0,0,0,.38.15.58.58,0,0,0,.37-.15.56.56,0,0,0,0-.79l-2-2.09,2.1-2.09A.63.63,0,0,0,12.88,7.13Z"/><path class="cls-1" d="M.41.41V19.63H19.62V.41ZM18.7,18.67H1.28V1.42H18.7Z"/></svg>