<svg id="Слой_1" data-name="Слой 1" xmlns="http://www.w3.org/2000/svg" viewBox="0 0 18 18"><defs><style>.cls-1{fill:#3056d3;}</style></defs><path class="cls-1" d="M4.36,17.63a1.1,1.1,0,0,1-.65-.19,1.19,1.19,0,0,1-.48-1.16L4,11.5.7,8.1a1.19,1.19,0,0,1,.62-2l4.59-.73L8,1A1.15,1.15,0,0,1,9,.37,1.1,1.1,0,0,1,10,1l2.11,4.33,4.59.73a1.14,1.14,0,0,1,.9.79,1.2,1.2,0,0,1-.28,1.21L14,11.47l.78,4.81a1.16,1.16,0,0,1-.47,1.16,1.12,1.12,0,0,1-1.18.08L9,15.27,4.89,17.52A1.05,1.05,0,0,1,4.36,17.63ZM1.41,7.42l3.4,3.49a.75.75,0,0,1,.2.68l-.79,4.86a.18.18,0,0,0,.08.2.09.09,0,0,0,.14,0l4.22-2.31a.78.78,0,0,1,.7,0l4.22,2.28a.21.21,0,0,0,.14,0,.25.25,0,0,0,.09-.2L13,11.53a.82.82,0,0,1,.2-.67l3.37-3.49a.25.25,0,0,0,.06-.23S16.59,7,16.54,7L11.81,6.3a.74.74,0,0,1-.56-.42L9.14,1.43c0-.08-.08-.08-.14-.08a.26.26,0,0,0-.14.08L6.75,5.91a.74.74,0,0,1-.56.42l-4.7.76a.12.12,0,0,0-.11.11A.16.16,0,0,0,1.41,7.42Z"/><path class="cls-1" d="M14.21,8.71l-2.08,2.13.5,3a.74.74,0,0,1-1.05.78L9,13.23,6.42,14.65a.93.93,0,0,1-.33.07.72.72,0,0,1-.42-.13.74.74,0,0,1-.3-.72l.49-3L3.78,8.72A.78.78,0,0,1,3.6,8a.75.75,0,0,1,.58-.49L7.05,7,8.34,4.27A.71.71,0,0,1,9,3.86a.69.69,0,0,1,.63.41L10.94,7l2.88.46A.74.74,0,0,1,14.4,8,.77.77,0,0,1,14.21,8.71Z"/></svg>