<svg xmlns="http://www.w3.org/2000/svg" width="12" height="9" viewBox="0 0 12 9">
   <path class="a" d="M11.7,5.2,8,8.76a.83.83,0,0,1-1.17,0,.77.77,0,0,1,0-1.13L9.06,5.49H1a1,1,0,1,1,0-2H9.07L6.87,1.37a.77.77,0,0,1,0-1.13A.83.83,0,0,1,8,.24L11.7,3.8A1,1,0,0,1,11.7,5.2Z" fill="#fff";/>
</svg>

<svg xmlns="http://www.w3.org/2000/svg" width="27" height="28" viewBox="0 0 27 28" fill="none">
<path d="M13.5 0.321655C6.05618 0.321655 0 6.37783 0 13.8217C0 21.2655 6.05618 27.3217 13.5 27.3217C20.9438 27.3217 27 21.2655 27 13.8217C27 6.37783 20.9438 0.321655 13.5 0.321655ZM11.0337 20.5963L5.8024 14.7829L7.34647 13.3933L10.9811 17.4316L19.601 7.16642L21.1937 8.49954L11.0337 20.5963Z" fill="#40DDB6"/>
</svg>
