<?xml version="1.0" encoding="utf-8"?>
<!-- Generator: Adobe Illustrator 24.0.2, SVG Export Plug-In . SVG Version: 6.00 Build 0)  -->
<svg version="1.1" id="favicon_1_" xmlns="http://www.w3.org/2000/svg" xmlns:xlink="http://www.w3.org/1999/xlink" x="0px" y="0px"
	 viewBox="0 0 60 70.7" style="enable-background:new 0 0 60 70.7;" xml:space="preserve">
<style type="text/css">
	.st0{fill:#29A8E0;}
	.st1{fill:#0070BA;}
	.st2{fill:#E44D26;}
	.st3{fill:#F16529;}
	.st4{fill:#F4F9FF;stroke:#000000;stroke-width:0.25;stroke-miterlimit:10;}
	.st5{display:none;fill:#F4F9FF;stroke:#000000;stroke-width:0.25;stroke-miterlimit:10;}
	.st6{font-family:'GuardianEgyptianWeb-Bold';}
	.st7{font-size:56.9197px;}
</style>
<g>
	<g id="css">
		<polygon class="st0" points="52.9,8.7 48.5,58.8 36.2,62.3 28,64.7 27.6,64.7 15.6,61.2 13.3,60.5 52.8,8.7 		"/>
		<path class="st1" d="M58,2l-5.1,6.7h0.1l-4.4,50.1l-12.3,3.5L28,64.7v0.1l-0.2-0.1l-0.1,0l-0.1,0.1v-0.1l-12-3.5l-2.3-0.7
			l-3.8,4.9l18.8,5.3l24.6-7.1L58.2,2H58z"/>
	</g>
	<g id="html">
		<polygon class="st2" points="54.9,6.7 5.3,6.7 9.6,56.8 14.9,58.4 11.1,63.3 5,61.6 0,0 60,0 		"/>
		<polygon class="st3" points="54.9,6.7 14.9,58.4 9.6,56.8 5.3,6.7 		"/>
	</g>
	<path class="st4" d="M44.4,41.5l-0.9,11.6H19.2L43.3,22c0.2,1,0.3,2.1,0.3,3.3c0,1.6-0.3,3.1-0.8,4.5c-0.5,1.4-1.3,2.8-2.3,4.1
		c-1,1.4-2.2,2.7-3.7,3.9c-1.4,1.3-3,2.6-4.8,3.8l-5.1,3.7v0.1h9.7l1.9-4H44.4z"/>
	<path class="st4" d="M41.2,14.5c-2.3-2.2-5.8-3.3-10.2-3.3c-2.6,0-5.1,0.3-7.3,1.1c-2.3,0.7-4.1,1.5-5.5,2.3v6.5
		c1.2-0.4,2.5-0.7,4-1c1.5-0.2,2.9-0.3,4.2-0.3c4.3,0,6.4,1.8,6.4,5.5c0,1.9-0.6,3.8-1.8,5.5c-1.2,1.7-2.9,3.6-5.1,5.7l-8.9,8.7v6.2
		h3.6l23.9-31.2C43.9,17.9,42.8,16,41.2,14.5z"/>
	<text transform="matrix(0.9996 0 0 1 15.0652 52.9041)" class="st5 st6 st7">2</text>
</g>
</svg>
