<svg xmlns="http://www.w3.org/2000/svg" width="24" height="24" viewBox="0 0 24 24">
  <defs>
    <style>
      .a {
        fill: #0b006a;
      }

      .b {
        fill: #fff;
        fill-rule: evenodd;
      }
    </style>
  </defs>
  <g>
    <path class="a" d="M0,11.52C0,6.09,0,3.37,1.69,1.69S6.09,0,11.52,0h1c5.43,0,8.15,0,9.83,1.69S24,6.09,24,11.52v1c0,5.43,0,8.15-1.69,9.83S17.91,24,12.48,24h-1c-5.43,0-8.15,0-9.83-1.69S0,17.91,0,12.48Z"/>
    <path class="b" d="M12,5.31c1.82,0,2.05,0,2.76,0a4.75,4.75,0,0,1,1.62.31,3.44,3.44,0,0,1,2,2,4.75,4.75,0,0,1,.31,1.62c0,.71,0,.94,0,2.76s0,2.05,0,2.76a4.75,4.75,0,0,1-.31,1.62,3.44,3.44,0,0,1-2,2,4.75,4.75,0,0,1-1.62.31c-.71,0-.94,0-2.76,0s-2.05,0-2.76,0a4.75,4.75,0,0,1-1.62-.31,3.44,3.44,0,0,1-2-2,4.75,4.75,0,0,1-.31-1.62c0-.71,0-.94,0-2.76s0-2.05,0-2.76a4.75,4.75,0,0,1,.31-1.62,3.44,3.44,0,0,1,2-2,4.75,4.75,0,0,1,1.62-.31C10,5.32,10.18,5.31,12,5.31Zm2.7,1.24c-.7,0-.91,0-2.7,0s-2,0-2.7,0a4.06,4.06,0,0,0-1.25.23A2.27,2.27,0,0,0,6.78,8.05,4.06,4.06,0,0,0,6.55,9.3c0,.7,0,.91,0,2.7s0,2,0,2.7A4.06,4.06,0,0,0,6.78,16a2.27,2.27,0,0,0,1.27,1.27,4.06,4.06,0,0,0,1.25.23c.7,0,.91,0,2.7,0s2,0,2.7,0A4.06,4.06,0,0,0,16,17.22,2.27,2.27,0,0,0,17.22,16a4.06,4.06,0,0,0,.23-1.25c0-.7,0-.91,0-2.7s0-2,0-2.7a4.06,4.06,0,0,0-.23-1.25A2.27,2.27,0,0,0,16,6.78,4.06,4.06,0,0,0,14.7,6.55ZM12,14.23A2.23,2.23,0,1,0,9.77,12,2.23,2.23,0,0,0,12,14.23Zm0-5.67A3.44,3.44,0,1,1,8.56,12,3.44,3.44,0,0,1,12,8.56Zm4.38-.13a.81.81,0,1,1-.81-.81.8.8,0,0,1,.81.81Z"/>
  </g>
</svg>
