<svg xmlns="http://www.w3.org/2000/svg" width="24" height="24" viewBox="0 0 24 24">
  <defs>
    <style>
      .a {
        fill: #0b006a;
      }

      .b {
        fill: #fff;
      }
    </style>
  </defs>
  <g>
    <path class="a" d="M0,11.52C0,6.09,0,3.37,1.69,1.69S6.09,0,11.52,0h1c5.43,0,8.15,0,9.83,1.69S24,6.09,24,11.52v1c0,5.43,0,8.15-1.69,9.83S17.91,24,12.48,24h-1c-5.43,0-8.15,0-9.83-1.69S0,17.91,0,12.48Z"/>
    <g>
      <rect class="b" x="6.45" y="9.31" width="2.55" height="8.21"/>
      <path class="b" d="M15.49,9.15a2.59,2.59,0,0,0-2.38,1.32V9.32H10.64v8.21h2.55V13.42c0-1.07.25-2.13,1.56-2.13s1.32,1.22,1.32,2.21v4h2.54l-.08-4.44C18.53,10.87,18.12,9.15,15.49,9.15Z"/>
      <circle class="b" cx="7.69" cy="6.69" r="1.48"/>
    </g>
  </g>
</svg>
