<svg xmlns="http://www.w3.org/2000/svg" width="292.72" height="293.78" viewBox="0 0 292.72 293.78">
  <defs>
    <style>
      .a {
        fill: #2c3742;
      }
    </style>
  </defs>
  <g>
    <path class="a" d="M242.67,218.94h-.07a.26.26,0,0,1-.18-.32l3.12-11a.26.26,0,0,1,.5.14l-3.12,11A.26.26,0,0,1,242.67,218.94Z"/>
    <path class="a" d="M132.42,229.21a.28.28,0,0,1-.21-.11l-2.58-3.43a.27.27,0,0,1,.06-.37.26.26,0,0,1,.36.06l2.58,3.43a.27.27,0,0,1,0,.37A.3.3,0,0,1,132.42,229.21Z"/>
    <path class="a" d="M248.68,41.05a.27.27,0,0,1,0-.53l6-.15h0a.26.26,0,0,1,.26.26.27.27,0,0,1-.25.27l-6,.15Z"/>
    <path class="a" d="M83.21,23.58a.26.26,0,0,1-.25-.17.26.26,0,0,1,.16-.33l5.13-1.86a.28.28,0,0,1,.34.16.25.25,0,0,1-.16.33L83.3,23.57Z"/>
    <path class="a" d="M231.76,235.51h0a.26.26,0,0,1-.25-.27L232,219a.29.29,0,0,1,.27-.26.26.26,0,0,1,.25.27L232,235.25A.26.26,0,0,1,231.76,235.51Z"/>
    <path class="a" d="M90.37,161.4a.25.25,0,0,1-.22-.13.26.26,0,0,1,.09-.36L103.86,153a.26.26,0,0,1,.36.09.27.27,0,0,1-.1.36l-13.62,8A.28.28,0,0,1,90.37,161.4Z"/>
    <path class="a" d="M91.49,10.34a.26.26,0,0,1-.25-.21l-1.1-5.35a.25.25,0,0,1,.2-.3.26.26,0,0,1,.31.2L91.75,10a.26.26,0,0,1-.2.31Z"/>
    <path class="a" d="M2,231.67H1.91a.26.26,0,0,1-.18-.32l1.35-5.14A.26.26,0,0,1,3.4,226a.27.27,0,0,1,.19.32l-1.36,5.14A.26.26,0,0,1,2,231.67Z"/>
    <path class="a" d="M82.3,190.7h0l-15.64-.25a.26.26,0,0,1-.26-.26.28.28,0,0,1,.27-.26l15.63.25a.27.27,0,0,1,.26.27A.26.26,0,0,1,82.3,190.7Z"/>
    <path class="a" d="M272.13,139.88a.29.29,0,0,1-.19-.08.28.28,0,0,1,0-.37l9.72-9.25a.26.26,0,0,1,.37,0,.25.25,0,0,1,0,.36l-9.72,9.26A.29.29,0,0,1,272.13,139.88Z"/>
    <path class="a" d="M144,144.57a.33.33,0,0,1-.16,0L141,142.39a.26.26,0,0,1,0-.37.27.27,0,0,1,.36-.05l2.82,2.13a.28.28,0,0,1,.05.37A.25.25,0,0,1,144,144.57Z"/>
    <path class="a" d="M66.53,289.25a.27.27,0,0,1-.26-.2.27.27,0,0,1,.21-.31l4.34-.88a.26.26,0,0,1,.31.2.28.28,0,0,1-.21.31l-4.34.88Z"/>
    <path class="a" d="M174.68,171.07h-.06a.25.25,0,0,1-.19-.31l1.2-5.46a.26.26,0,0,1,.31-.2.27.27,0,0,1,.2.31l-1.21,5.46A.26.26,0,0,1,174.68,171.07Z"/>
    <path class="a" d="M265.8,55.51h-.06a.26.26,0,0,1-.2-.31l3.65-15.14a.28.28,0,0,1,.32-.19.27.27,0,0,1,.19.32l-3.65,15.13A.26.26,0,0,1,265.8,55.51Z"/>
    <path class="a" d="M143.87,181a.26.26,0,0,1-.15,0,.27.27,0,0,1-.07-.37l8.84-12.89a.25.25,0,0,1,.36-.06.26.26,0,0,1,.07.36l-8.84,12.89A.26.26,0,0,1,143.87,181Z"/>
    <path class="a" d="M16.71,41.88h-.06a.26.26,0,0,1-.19-.32l2.89-12a.26.26,0,0,1,.31-.19.28.28,0,0,1,.2.32l-2.9,12A.25.25,0,0,1,16.71,41.88Z"/>
    <path class="a" d="M200.24,136a.31.31,0,0,1-.13,0,.26.26,0,0,1-.1-.35l2.07-3.7a.26.26,0,0,1,.46.25l-2.07,3.7A.26.26,0,0,1,200.24,136Z"/>
    <path class="a" d="M177.12,23a.16.16,0,0,1-.1,0l-12-4.95a.25.25,0,0,1-.14-.34.27.27,0,0,1,.34-.14l12,4.95a.27.27,0,0,1,.14.34A.26.26,0,0,1,177.12,23Z"/>
    <path class="a" d="M202.56,3.93h-.06l-4.35-1a.25.25,0,0,1-.19-.31.26.26,0,0,1,.31-.19l4.35,1a.26.26,0,0,1,.19.31A.25.25,0,0,1,202.56,3.93Z"/>
    <path class="a" d="M289.36,148.35a.26.26,0,0,1-.22-.13l-4.09-6.84a.26.26,0,0,1,.09-.35.25.25,0,0,1,.36.09l4.08,6.83a.25.25,0,0,1-.09.36A.2.2,0,0,1,289.36,148.35Z"/>
    <path class="a" d="M222.1,45.85a.24.24,0,0,1-.19-.08.27.27,0,0,1,0-.37l3.78-3.56a.25.25,0,0,1,.36,0,.26.26,0,0,1,0,.37l-3.77,3.56A.24.24,0,0,1,222.1,45.85Z"/>
    <path class="a" d="M268.28,232.09a.23.23,0,0,1-.15-.05l-15.86-11.28a.27.27,0,1,1,.31-.43l15.86,11.29a.26.26,0,0,1-.16.47Z"/>
    <path class="a" d="M240.2,264.55a.23.23,0,0,1-.14,0l-16.18-10.38a.26.26,0,0,1,.28-.44l16.18,10.38a.26.26,0,0,1-.14.48Z"/>
    <path class="a" d="M12.17,20.88h-.08L2.5,17.64a.26.26,0,0,1,.17-.5l9.58,3.23a.27.27,0,0,1,.17.33A.27.27,0,0,1,12.17,20.88Z"/>
    <path class="a" d="M120,290.71l-.11,0a.27.27,0,0,1-.13-.35l6.68-15a.26.26,0,0,1,.34-.13.26.26,0,0,1,.14.34l-6.68,15A.27.27,0,0,1,120,290.71Z"/>
    <path class="a" d="M170.75,159.7a.27.27,0,0,1-.24-.17l-4.86-12.24a.27.27,0,0,1,.15-.34.27.27,0,0,1,.34.15L171,159.34a.26.26,0,0,1-.14.34Z"/>
    <path class="a" d="M197,212l-.12,0-4.18-2.33a.26.26,0,0,1,.25-.45l4.18,2.32a.26.26,0,0,1,.1.36A.28.28,0,0,1,197,212Z"/>
    <path class="a" d="M227.67,7.09a.27.27,0,0,1-.22-.11l-2.06-3a.26.26,0,0,1,.07-.36.25.25,0,0,1,.36.06l2.06,3a.26.26,0,0,1-.07.36A.24.24,0,0,1,227.67,7.09Z"/>
    <path class="a" d="M218.57,143a.27.27,0,0,1-.26-.24l-1.49-20.06a.26.26,0,0,1,.52,0l1.49,20.06a.27.27,0,0,1-.24.28Z"/>
    <path class="a" d="M190.27,149a.27.27,0,0,1-.25-.23.25.25,0,0,1,.22-.29l14.22-2.05a.26.26,0,0,1,.07.51l-14.22,2Z"/>
    <path class="a" d="M154.2,62.32a.33.33,0,0,1-.16,0l-11.87-9.05a.27.27,0,0,1,0-.37.28.28,0,0,1,.37-.05l11.87,9.05a.27.27,0,0,1,0,.37A.28.28,0,0,1,154.2,62.32Z"/>
    <path class="a" d="M130.92,105.11a.27.27,0,0,1-.25-.18l-3-9a.27.27,0,0,1,.17-.33.25.25,0,0,1,.32.17l3,8.94a.26.26,0,0,1-.17.33Z"/>
    <path class="a" d="M87.72,217.75h-.08l-7.13-2.18a.26.26,0,0,1-.18-.32.27.27,0,0,1,.33-.18l7.13,2.18a.26.26,0,0,1,.18.32A.26.26,0,0,1,87.72,217.75Z"/>
    <path class="a" d="M270.41,127.21a.25.25,0,0,1-.12,0l-3.78-1.85a.28.28,0,0,1-.12-.35.27.27,0,0,1,.35-.12l3.78,1.85a.26.26,0,0,1,.12.35A.25.25,0,0,1,270.41,127.21Z"/>
    <path class="a" d="M68.5,205.5a.23.23,0,0,1-.14,0,.26.26,0,0,1-.08-.36l2.16-3.26a.26.26,0,0,1,.37-.08.26.26,0,0,1,.07.36l-2.16,3.26A.26.26,0,0,1,68.5,205.5Z"/>
    <path class="a" d="M227.74,243.78a.26.26,0,0,1-.18-.07l-15.1-13.92a.25.25,0,0,1,0-.36.26.26,0,0,1,.37,0l15.11,13.92a.25.25,0,0,1,0,.36A.25.25,0,0,1,227.74,243.78Z"/>
    <path class="a" d="M138.87,291.85h-.09l-6-2.23a.27.27,0,0,1-.15-.34.26.26,0,0,1,.33-.15l6,2.23a.26.26,0,0,1,.15.33A.25.25,0,0,1,138.87,291.85Z"/>
    <path class="a" d="M288.79,254.42l-.1,0-3.91-1.48a.26.26,0,0,1-.15-.33.26.26,0,0,1,.34-.16l3.91,1.48a.27.27,0,0,1,.15.34A.27.27,0,0,1,288.79,254.42Z"/>
    <path class="a" d="M85.06,152.24a.27.27,0,0,1-.17-.06.27.27,0,0,1,0-.37l3-3.5a.26.26,0,1,1,.4.34l-3,3.5A.28.28,0,0,1,85.06,152.24Z"/>
    <path class="a" d="M289.78,129.67a.27.27,0,0,1-.26-.2l-2.07-8.54a.27.27,0,0,1,.19-.32.28.28,0,0,1,.32.2l2.07,8.54a.26.26,0,0,1-.19.31Z"/>
    <path class="a" d="M2.14,197.92a.26.26,0,0,1-.26-.24l-.73-12.36a.27.27,0,0,1,.24-.28.27.27,0,0,1,.28.25l.73,12.36a.26.26,0,0,1-.24.27Z"/>
    <path class="a" d="M226.12,175.69a.27.27,0,0,1-.15-.05l-10.65-8a.27.27,0,0,1,0-.36.26.26,0,0,1,.37,0l10.64,8a.26.26,0,0,1,.05.37A.25.25,0,0,1,226.12,175.69Z"/>
    <path class="a" d="M4.21,245.15l-.12,0-3.75-2a.25.25,0,0,1-.11-.35.27.27,0,0,1,.35-.11l3.75,2a.27.27,0,0,1,.11.36A.26.26,0,0,1,4.21,245.15Z"/>
    <path class="a" d="M168.85,107.05a.25.25,0,0,1-.21-.12l-3.72-5.51a.27.27,0,0,1,.08-.37.26.26,0,0,1,.36.08l3.71,5.51a.26.26,0,0,1-.07.36A.25.25,0,0,1,168.85,107.05Z"/>
    <path class="a" d="M189,271h-.08l-8.55-2.86a.26.26,0,0,1,.17-.49l8.55,2.85a.26.26,0,0,1,.16.33A.27.27,0,0,1,189,271Z"/>
    <path class="a" d="M212.21,17.9h-.06a.27.27,0,0,1-.2-.31l2.83-12.77a.26.26,0,0,1,.51.12L212.46,17.7A.25.25,0,0,1,212.21,17.9Z"/>
    <path class="a" d="M44.63,50.38a.27.27,0,0,1-.17-.06.27.27,0,0,1,0-.37L46.9,47a.25.25,0,0,1,.36,0,.26.26,0,0,1,0,.37l-2.46,2.93A.25.25,0,0,1,44.63,50.38Z"/>
    <path class="a" d="M5.72,292h0l-3.92-.85a.26.26,0,0,1,.11-.51l3.92.85a.26.26,0,0,1,.2.31A.27.27,0,0,1,5.72,292Z"/>
    <path class="a" d="M238.42,244.91a.26.26,0,0,1-.17-.45l12.87-11.07a.25.25,0,0,1,.36,0,.26.26,0,0,1,0,.37l-12.86,11.06A.27.27,0,0,1,238.42,244.91Z"/>
    <path class="a" d="M132.67,204.38a.26.26,0,0,1-.25-.19.26.26,0,0,1,.17-.32l4.4-1.31a.26.26,0,0,1,.33.17.27.27,0,0,1-.18.33l-4.4,1.31Z"/>
    <path class="a" d="M126.93,216.84a.27.27,0,0,1-.24-.17.26.26,0,0,1,.14-.34l3.55-1.43a.27.27,0,0,1,.34.15.25.25,0,0,1-.15.33L127,216.82Z"/>
    <path class="a" d="M236.52,288.11a.25.25,0,0,1-.26-.26L236,276.72a.25.25,0,0,1,.25-.26.25.25,0,0,1,.27.25l.23,11.13a.27.27,0,0,1-.26.27Z"/>
    <path class="a" d="M55.23,95.19a.33.33,0,0,1-.14,0l-4.27-2.73a.26.26,0,0,1-.08-.36A.27.27,0,0,1,51.1,92l4.27,2.73a.27.27,0,0,1,.08.36A.26.26,0,0,1,55.23,95.19Z"/>
    <path class="a" d="M18.56,9.24a.26.26,0,0,1-.22-.12.27.27,0,0,1,.08-.36L29.6,1.61a.26.26,0,0,1,.36.08.27.27,0,0,1-.08.36L18.7,9.2A.23.23,0,0,1,18.56,9.24Z"/>
    <path class="a" d="M1,118.48l-.1,0a.27.27,0,0,1-.14-.34l2.59-6.2a.27.27,0,0,1,.34-.14.27.27,0,0,1,.14.34l-2.59,6.2A.26.26,0,0,1,1,118.48Z"/>
    <path class="a" d="M105.77,130.25a.22.22,0,0,1-.13,0,.27.27,0,0,1-.09-.36l1.83-3a.26.26,0,0,1,.45.27l-1.83,3A.28.28,0,0,1,105.77,130.25Z"/>
    <path class="a" d="M120.6,140a.3.3,0,0,1-.15-.05.27.27,0,0,1-.06-.37l2.27-3.11a.27.27,0,0,1,.37-.05.25.25,0,0,1,0,.36l-2.27,3.11A.26.26,0,0,1,120.6,140Z"/>
    <path class="a" d="M55.6,289.85a.25.25,0,0,1-.14,0L52.39,288a.27.27,0,0,1-.09-.36.27.27,0,0,1,.36-.09l3.07,1.83a.27.27,0,0,1,.09.36A.26.26,0,0,1,55.6,289.85Z"/>
    <path class="a" d="M288.21,225.82h0a.26.26,0,0,1-.21-.3L289,219.3a.26.26,0,0,1,.3-.21.25.25,0,0,1,.21.3l-1.08,6.22A.25.25,0,0,1,288.21,225.82Z"/>
    <path class="a" d="M182,230.43a.27.27,0,0,1-.19-.08.26.26,0,0,1,0-.37l11.6-10.63a.27.27,0,0,1,.37,0,.26.26,0,0,1,0,.37l-11.6,10.62A.24.24,0,0,1,182,230.43Z"/>
    <path class="a" d="M272.2,11.78a.28.28,0,0,1-.2-.1.27.27,0,0,1,0-.37l3-2.38a.26.26,0,0,1,.37,0,.26.26,0,0,1,0,.36l-3,2.39A.27.27,0,0,1,272.2,11.78Z"/>
    <path class="a" d="M286.17,174.64h-.07L267,168.77a.27.27,0,0,1-.17-.33.25.25,0,0,1,.32-.17l19.11,5.86a.25.25,0,0,1,.17.33A.25.25,0,0,1,286.17,174.64Z"/>
    <path class="a" d="M158.71,291.76h0l-7-1a.26.26,0,0,1-.23-.29.27.27,0,0,1,.3-.22l7,1a.26.26,0,0,1,.22.3A.26.26,0,0,1,158.71,291.76Z"/>
    <path class="a" d="M267.83,3.76h0L256.42,2.44a.26.26,0,1,1,.06-.51l11.38,1.31a.26.26,0,0,1,.23.29A.25.25,0,0,1,267.83,3.76Z"/>
    <path class="a" d="M128,85.4a.27.27,0,0,1-.25-.17l-7.06-19.32a.27.27,0,0,1,.15-.34.26.26,0,0,1,.34.16l7.06,19.32a.26.26,0,0,1-.15.33Z"/>
    <path class="a" d="M41.28,213.43h-.07l-15.74-4.63a.27.27,0,0,1-.18-.33.27.27,0,0,1,.33-.17l15.73,4.63a.26.26,0,0,1,.18.32A.27.27,0,0,1,41.28,213.43Z"/>
    <path class="a" d="M161.22,115.1a.23.23,0,0,1-.14,0l-5.35-3.44a.26.26,0,1,1,.28-.43l5.35,3.43a.27.27,0,0,1,.08.36A.26.26,0,0,1,161.22,115.1Z"/>
    <path class="a" d="M42.74,150.9a.28.28,0,0,1-.2-.1L31.91,138.21a.26.26,0,0,1,.4-.34l10.63,12.6a.25.25,0,0,1,0,.36A.28.28,0,0,1,42.74,150.9Z"/>
    <path class="a" d="M18.4,95.69a.28.28,0,0,1-.26-.21l-1-4.86a.26.26,0,0,1,.51-.1l1,4.85a.26.26,0,0,1-.2.31Z"/>
    <path class="a" d="M230.55,202.69a.27.27,0,0,1-.17-.06L219,192.37a.26.26,0,1,1,.35-.39l11.38,10.26a.27.27,0,0,1,0,.37A.27.27,0,0,1,230.55,202.69Z"/>
    <path class="a" d="M177.27,61l-.11,0-11.43-5.2a.27.27,0,0,1-.13-.35.26.26,0,0,1,.34-.13l11.43,5.2a.27.27,0,0,1,.13.35A.26.26,0,0,1,177.27,61Z"/>
    <path class="a" d="M60,8.69h0a.25.25,0,0,1-.25-.27l.12-4a.26.26,0,0,1,.52,0l-.12,4A.26.26,0,0,1,60,8.69Z"/>
    <path class="a" d="M264.18,67.47a.26.26,0,0,1-.26-.22l-.56-3.61a.27.27,0,0,1,.22-.3.27.27,0,0,1,.3.22l.56,3.61a.26.26,0,0,1-.22.3Z"/>
    <path class="a" d="M272.64,221.79a.27.27,0,0,1-.26-.24.25.25,0,0,1,.24-.28l5.35-.47a.27.27,0,0,1,.28.24.25.25,0,0,1-.24.28l-5.35.46Z"/>
    <path class="a" d="M26.38,105.55h-.05a.26.26,0,0,1-.21-.31l1.05-4.91a.27.27,0,0,1,.31-.21.26.26,0,0,1,.2.31l-1.05,4.91A.25.25,0,0,1,26.38,105.55Z"/>
    <path class="a" d="M170.86,231.64a.26.26,0,0,1-.21-.11l-2.7-3.89a.26.26,0,0,1,.07-.36.25.25,0,0,1,.36.06l2.7,3.9a.25.25,0,0,1-.22.4Z"/>
    <path class="a" d="M49.47,164.7a.26.26,0,0,1-.26-.26.26.26,0,0,1,.26-.26l18.16-.06h0a.26.26,0,0,1,.26.26.26.26,0,0,1-.26.26l-18.16.06Z"/>
    <path class="a" d="M246.14,188.44h0a.24.24,0,0,1-.23-.28l.46-4.08a.26.26,0,0,1,.52.06l-.46,4.08A.27.27,0,0,1,246.14,188.44Z"/>
    <path class="a" d="M217.44,184.06a.25.25,0,0,1-.16-.06l-4.74-3.8a.26.26,0,1,1,.33-.41l4.73,3.8a.26.26,0,0,1,0,.37A.26.26,0,0,1,217.44,184.06Z"/>
    <path class="a" d="M95.9,141.42h-.06a.26.26,0,0,1-.2-.31L96.73,136a.27.27,0,0,1,.31-.2.26.26,0,0,1,.2.31l-1.09,5.16A.25.25,0,0,1,95.9,141.42Z"/>
    <path class="a" d="M209.37,290.84a.27.27,0,0,1-.19-.08l-4.7-4.93a.26.26,0,0,1,0-.37.25.25,0,0,1,.36,0l4.71,4.93a.26.26,0,0,1,0,.37A.24.24,0,0,1,209.37,290.84Z"/>
    <path class="a" d="M161.83,68.35a.26.26,0,0,1-.25-.22.27.27,0,0,1,.22-.3l4.92-.75a.27.27,0,0,1,.3.22.27.27,0,0,1-.22.3l-4.93.75Z"/>
    <path class="a" d="M288.1,75.8a.2.2,0,0,1-.13,0l-14.05-7.64a.25.25,0,0,1-.11-.35.27.27,0,0,1,.36-.11l14.05,7.65a.26.26,0,0,1,.11.35A.27.27,0,0,1,288.1,75.8Z"/>
    <path class="a" d="M172.44,290a.28.28,0,0,1-.21-.1.27.27,0,0,1,0-.37l7.88-6.27a.26.26,0,0,1,.33.41L172.6,290A.27.27,0,0,1,172.44,290Z"/>
    <path class="a" d="M225.05,269.48H225L221,268.06a.26.26,0,0,1-.16-.33.28.28,0,0,1,.34-.16l3.92,1.41a.26.26,0,0,1-.09.5Z"/>
    <path class="a" d="M2.16,69.1H2.09a.26.26,0,0,1-.18-.32L3,65.22a.25.25,0,0,1,.32-.17.26.26,0,0,1,.18.32L2.41,68.92A.26.26,0,0,1,2.16,69.1Z"/>
    <path class="a" d="M269.82,196.25a.26.26,0,0,1-.26-.23.27.27,0,0,1,.24-.29l6.24-.56a.29.29,0,0,1,.29.24.27.27,0,0,1-.24.28l-6.25.56Z"/>
    <path class="a" d="M262.38,257.7a.26.26,0,0,1-.26-.22L259.91,243a.26.26,0,0,1,.51-.07l2.22,14.44a.27.27,0,0,1-.22.3Z"/>
    <path class="a" d="M209.42,51.78a.26.26,0,0,1-.24-.18l-1.7-4.87a.26.26,0,0,1,.16-.33.25.25,0,0,1,.33.16l1.7,4.87a.25.25,0,0,1-.16.33Z"/>
    <path class="a" d="M264.9,33.65h-.08l-5.71-1.89a.26.26,0,0,1,.17-.49l5.7,1.88a.27.27,0,0,1,.17.33A.27.27,0,0,1,264.9,33.65Z"/>
    <path class="a" d="M163.11,241.54a.26.26,0,0,1-.24-.16l-6.42-16.09a.25.25,0,0,1,.14-.34.27.27,0,0,1,.34.14l6.42,16.09a.25.25,0,0,1-.14.34Z"/>
    <path class="a" d="M165.7,43.54a.26.26,0,0,1-.21-.11l-2-2.86a.26.26,0,0,1,.44-.29l1.94,2.86a.26.26,0,0,1-.07.36A.28.28,0,0,1,165.7,43.54Z"/>
    <path class="a" d="M161.78,79.78h-.09l-9.32-3.44a.27.27,0,0,1-.15-.34.26.26,0,0,1,.33-.15l9.32,3.44a.26.26,0,0,1-.09.5Z"/>
    <path class="a" d="M154.27,50.14a.32.32,0,0,1-.2-.08.27.27,0,0,1,0-.37l2.73-2.52a.25.25,0,0,1,.36,0,.25.25,0,0,1,0,.36l-2.73,2.52A.23.23,0,0,1,154.27,50.14Z"/>
    <path class="a" d="M76,278.7a.26.26,0,0,1-.25-.19l-1.71-5.87a.24.24,0,0,1,.17-.32.27.27,0,0,1,.33.17l1.71,5.87a.27.27,0,0,1-.18.33Z"/>
    <path class="a" d="M14.36,239.56h0a.26.26,0,0,1-.21-.3l3.55-18.82a.26.26,0,0,1,.31-.2.25.25,0,0,1,.2.3l-3.55,18.81A.26.26,0,0,1,14.36,239.56Z"/>
    <path class="a" d="M.94,170.66a.26.26,0,0,1-.21-.11.26.26,0,0,1,.05-.36L3.84,168a.26.26,0,0,1,.37.06.26.26,0,0,1-.06.36l-3.06,2.24A.3.3,0,0,1,.94,170.66Z"/>
    <path class="a" d="M1.54,283a.26.26,0,0,1-.26-.23L0,269.87a.27.27,0,0,1,.24-.29.27.27,0,0,1,.28.24L1.8,282.75a.26.26,0,0,1-.23.28Z"/>
    <path class="a" d="M107.23,14.93a.27.27,0,0,1-.25-.17L103.4,5.24a.26.26,0,0,1,.16-.33.24.24,0,0,1,.33.15l3.58,9.51a.27.27,0,0,1-.15.34Z"/>
    <path class="a" d="M150.4,102.58a.21.21,0,0,1-.15,0,.26.26,0,0,1-.07-.36L159.29,89a.26.26,0,1,1,.43.29l-9.11,13.22A.26.26,0,0,1,150.4,102.58Z"/>
    <path class="a" d="M55,56.5a.27.27,0,0,1-.26-.25A.26.26,0,0,1,55,56a7.1,7.1,0,0,0,6.64-7.52,7.1,7.1,0,0,0-7.51-6.64.26.26,0,0,1-.28-.24.27.27,0,0,1,.25-.28A7.61,7.61,0,0,1,55,56.5Z"/>
    <path class="a" d="M280.18,16.78a.26.26,0,0,1-.26-.25.26.26,0,0,1,.24-.27,7.71,7.71,0,0,0,4.51-13.51A7.61,7.61,0,0,0,279.08.88a.27.27,0,0,1-.28-.24A.26.26,0,0,1,279,.36a8.23,8.23,0,0,1,1.16,16.42Z"/>
    <path class="a" d="M244.23,105.54a.27.27,0,0,1-.12,0,2.09,2.09,0,0,1-1-1.23,2.07,2.07,0,0,1,.17-1.56,2,2,0,0,1,2.78-.81.25.25,0,0,1,.11.35.26.26,0,0,1-.36.1,1.53,1.53,0,0,0-2.2,1.78,1.56,1.56,0,0,0,.74.91.26.26,0,0,1,.1.35A.27.27,0,0,1,244.23,105.54Z"/>
    <path class="a" d="M268.36,82.57h-.05a.26.26,0,0,1-.21-.31A2.7,2.7,0,0,0,264,79.47a2.68,2.68,0,0,0-1.15,1.71.26.26,0,0,1-.31.21.28.28,0,0,1-.21-.31,3.3,3.3,0,0,1,1.38-2,3.26,3.26,0,0,1,2.43-.47,3.22,3.22,0,0,1,2.52,3.8A.25.25,0,0,1,268.36,82.57Z"/>
    <path class="a" d="M20.16,255.17a.27.27,0,0,1-.22-.11,3.52,3.52,0,0,1,1-4.88,3.48,3.48,0,0,1,2.64-.53,3.53,3.53,0,0,1,2.24,1.5.26.26,0,0,1-.07.36.27.27,0,0,1-.37-.07,3,3,0,0,0-5,3.33.26.26,0,0,1-.07.36A.23.23,0,0,1,20.16,255.17Z"/>
    <path class="a" d="M158,159.08a4.88,4.88,0,0,1-.85-.07,5.72,5.72,0,0,1-4.82-6.48.25.25,0,0,1,.3-.22.26.26,0,0,1,.22.29,5.2,5.2,0,0,0,4.38,5.9,5.19,5.19,0,0,0,5.89-4.38.27.27,0,0,1,.3-.22.27.27,0,0,1,.22.3,5.73,5.73,0,0,1-5.64,4.88Z"/>
    <path class="a" d="M173.31,78.76a.28.28,0,0,1-.26-.21.26.26,0,0,1,.21-.31,2,2,0,0,0,1.55-2.31,2,2,0,0,0-2.31-1.55.25.25,0,0,1-.3-.2.26.26,0,0,1,.2-.31,2.5,2.5,0,0,1,2.92,2,2.49,2.49,0,0,1-2,2.92Z"/>
    <path class="a" d="M289.85,165.92a3.3,3.3,0,0,1-3.27-2.92,3.28,3.28,0,0,1,2.89-3.66.26.26,0,1,1,.06.51,2.78,2.78,0,0,0-1.4,5,2.75,2.75,0,0,0,2.05.58.25.25,0,0,1,.29.23.27.27,0,0,1-.23.29Z"/>
    <path class="a" d="M85.17,236h-.08a.26.26,0,0,1-.16-.34,4.74,4.74,0,0,0-9-3.1.25.25,0,0,1-.33.16.26.26,0,0,1-.16-.33,5.26,5.26,0,0,1,6.69-3.24,5.25,5.25,0,0,1,3.25,6.68A.27.27,0,0,1,85.17,236Z"/>
    <path class="a" d="M16,152.83a7.23,7.23,0,0,1-7-5.29.27.27,0,0,1,.19-.32.26.26,0,0,1,.32.18,6.7,6.7,0,0,0,8.22,4.67,6.69,6.69,0,0,0,4.67-8.22.25.25,0,0,1,.18-.32.26.26,0,0,1,.32.18,7.21,7.21,0,0,1-5,8.86A7,7,0,0,1,16,152.83Z"/>
    <path class="a" d="M73.7,183a.26.26,0,0,1-.2-.1,8.42,8.42,0,0,1,1.59-11.8,8.44,8.44,0,0,1,11.8,1.59.26.26,0,1,1-.42.32,7.9,7.9,0,1,0-12.56,9.57.27.27,0,0,1,0,.37A.3.3,0,0,1,73.7,183Z"/>
    <path class="a" d="M169.61,203.19a.3.3,0,0,1-.16-.05.28.28,0,0,1,0-.37,2.3,2.3,0,1,0-3.63-2.81.26.26,0,0,1-.37,0,.26.26,0,0,1-.05-.36,2.82,2.82,0,1,1,4.47,3.44A.28.28,0,0,1,169.61,203.19Z"/>
    <path class="a" d="M105.64,115a1.86,1.86,0,0,1-1.38-.6,1.88,1.88,0,0,1,.08-2.67.26.26,0,0,1,.36.38,1.37,1.37,0,0,0,1.87,2,.26.26,0,0,1,.37,0,.27.27,0,0,1,0,.37A1.9,1.9,0,0,1,105.64,115Z"/>
    <path class="a" d="M221.67,115.5a.27.27,0,0,1-.22-.11,7.33,7.33,0,0,1,11.92-8.53.26.26,0,0,1-.42.3,6.81,6.81,0,1,0-11.07,7.93.27.27,0,0,1-.06.36A.3.3,0,0,1,221.67,115.5Z"/>
    <path class="a" d="M188.24,57.36a.26.26,0,0,1-.26-.26.26.26,0,0,1,.26-.26A5.39,5.39,0,0,0,188,46.07h0a.26.26,0,1,1,0-.52,5.8,5.8,0,0,1,4.21,1.64,5.91,5.91,0,0,1-4,10.17Z"/>
    <path class="a" d="M96.82,275.93a5.14,5.14,0,0,1-2.49-9.63.27.27,0,0,1,.35.11.26.26,0,0,1-.1.35A4.61,4.61,0,1,0,99,274.83a.26.26,0,0,1,.35.1.26.26,0,0,1-.1.36A5.11,5.11,0,0,1,96.82,275.93Z"/>
    <path class="a" d="M218.59,75.35a.27.27,0,0,1-.24-.17.27.27,0,0,1,.15-.34,1.22,1.22,0,1,0-.84-2.3.26.26,0,0,1-.33-.16.26.26,0,0,1,.15-.33,1.74,1.74,0,0,1,2.24,1,1.78,1.78,0,0,1-.05,1.34,1.75,1.75,0,0,1-1,.9Z"/>
    <path class="a" d="M4.32,33.69h0a.26.26,0,0,1-.22-.3A1.46,1.46,0,0,0,2.8,31.76a1.44,1.44,0,0,0-1.08.29,1.47,1.47,0,0,0-.56,1A.26.26,0,1,1,.65,33a2,2,0,1,1,3.93.5A.26.26,0,0,1,4.32,33.69Z"/>
    <path class="a" d="M211.28,161.13a.27.27,0,0,1-.26-.23.26.26,0,0,1,.22-.29,6.54,6.54,0,1,0-2-12.93.26.26,0,0,1-.29-.22.25.25,0,0,1,.22-.29,7,7,0,0,1,8,5.92,7.06,7.06,0,0,1-5.92,8Z"/>
    <path class="a" d="M36.7,293.78a.28.28,0,0,1-.23-.13,3.48,3.48,0,1,1,6.07-3.42.26.26,0,1,1-.45.25,3,3,0,1,0-5.17,2.91.25.25,0,0,1-.1.35A.19.19,0,0,1,36.7,293.78Z"/>
    <path class="a" d="M4.19,84.23h0A.26.26,0,0,1,3.93,84a1.11,1.11,0,0,0-1-1.19,1.09,1.09,0,0,0-1.19,1,.28.28,0,0,1-.28.24.26.26,0,0,1-.24-.28A1.61,1.61,0,0,1,3,82.24,1.63,1.63,0,0,1,4.45,84,.27.27,0,0,1,4.19,84.23Z"/>
    <path class="a" d="M74.49,99.81a.26.26,0,0,1-.24-.16.25.25,0,0,1,.14-.34,1.92,1.92,0,0,0-1.54-3.52.26.26,0,1,1-.21-.47,2.44,2.44,0,1,1,2,4.47Z"/>
    <path class="a" d="M265.07,212.83a5.58,5.58,0,0,1-5.52-4.83.26.26,0,0,1,.22-.29.26.26,0,0,1,.3.22,5,5,0,1,0,10-1.35.25.25,0,0,1,.23-.29.24.24,0,0,1,.29.22,5.57,5.57,0,0,1-4.77,6.26A4.74,4.74,0,0,1,265.07,212.83Z"/>
    <path class="a" d="M133.47,142.42a.26.26,0,0,1-.19-.07,8,8,0,0,1,5.45-13.73,7.87,7.87,0,0,1,5.68,2.26.27.27,0,0,1,0,.37.25.25,0,0,1-.36,0A7.47,7.47,0,1,0,133.65,142a.27.27,0,0,1,0,.37A.27.27,0,0,1,133.47,142.42Z"/>
    <path class="a" d="M233.34,52.27a3.34,3.34,0,0,1-1.2-.21.25.25,0,0,1-.16-.33.26.26,0,0,1,.33-.16,3,3,0,0,0,3.77-4.14,3,3,0,0,0-1.72-1.55.27.27,0,0,1-.15-.34.26.26,0,0,1,.33-.15,3.54,3.54,0,0,1-1.2,6.88Z"/>
    <path class="a" d="M53.69,150.89a.26.26,0,0,1-.26-.26.26.26,0,0,1,.26-.26,4,4,0,0,0,0-8,.27.27,0,0,1,0-.53,4.51,4.51,0,0,1,0,9Z"/>
    <path class="a" d="M148.13,236.51a.28.28,0,0,1-.21-.1A.28.28,0,0,1,148,236a1.19,1.19,0,0,0,.48-.82,1.21,1.21,0,0,0-.24-.92,1.23,1.23,0,0,0-1.74-.24.27.27,0,0,1-.37-.05.28.28,0,0,1,.05-.37,1.77,1.77,0,0,1,2.14,2.82A.3.3,0,0,1,148.13,236.51Z"/>
    <path class="a" d="M75.63,62.67h-.08a4.8,4.8,0,0,1,3-9.13.26.26,0,1,1-.16.49,4.32,4.32,0,0,0-3.27.25,4.28,4.28,0,0,0,.6,7.89.27.27,0,0,1,.17.33A.27.27,0,0,1,75.63,62.67Z"/>
    <path class="a" d="M114.34,281.2h0a4.56,4.56,0,0,1,.1-9.11h.1a.26.26,0,1,1,0,.52h-.1a4,4,0,0,0-.09,8.07.26.26,0,1,1,0,.52Z"/>
    <path class="a" d="M16.46,81a.26.26,0,0,1-.16-.46,1.6,1.6,0,0,0,.57-1.06,1.55,1.55,0,0,0-.36-1.15,1.52,1.52,0,0,0-1.06-.57,1.54,1.54,0,0,0-1.15.35.27.27,0,0,1-.37,0,.26.26,0,0,1,0-.36,2.08,2.08,0,0,1,1.53-.47,2.09,2.09,0,0,1,1.88,2.29,2.08,2.08,0,0,1-.75,1.42A.26.26,0,0,1,16.46,81Z"/>
    <path class="a" d="M32.14,89a.26.26,0,0,1-.22-.13.25.25,0,0,1,.08-.35A2.57,2.57,0,0,0,32.87,85a2.57,2.57,0,0,0-3.52-.86A.26.26,0,0,1,29,84a.27.27,0,0,1,.09-.36A3.08,3.08,0,0,1,32.28,89,.25.25,0,0,1,32.14,89Z"/>
    <path class="a" d="M251,159.29a2.19,2.19,0,0,1-.87-.18A2.13,2.13,0,0,1,249,156.3a.26.26,0,1,1,.47.22,1.61,1.61,0,0,0,0,1.22,1.59,1.59,0,0,0,.84.89,1.59,1.59,0,0,0,2.11-.8.28.28,0,0,1,.35-.13.27.27,0,0,1,.13.35,2.11,2.11,0,0,1-1.18,1.11A2.19,2.19,0,0,1,251,159.29Z"/>
    <path class="a" d="M241.45,3.71a2.59,2.59,0,0,1-.47,0A2.33,2.33,0,0,1,239.17.91a.26.26,0,0,1,.31-.2.26.26,0,0,1,.2.31,1.81,1.81,0,0,0,3.54.72.26.26,0,0,1,.51.11A2.33,2.33,0,0,1,241.45,3.71Z"/>
    <path class="a" d="M5.58,101.33a2.57,2.57,0,0,1-.67-.09,2.39,2.39,0,0,1-1.46-1.16,2.44,2.44,0,0,1,.94-3.31.26.26,0,1,1,.26.45,1.92,1.92,0,1,0,1.86,3.35.25.25,0,0,1,.35.1.26.26,0,0,1-.1.35A2.37,2.37,0,0,1,5.58,101.33Z"/>
    <path class="a" d="M186.91,76.66a.26.26,0,0,1-.24-.16.27.27,0,0,1,.14-.34,3.14,3.14,0,0,0,0-5.81,3.12,3.12,0,0,0-2.4,0,.25.25,0,0,1-.34-.14.25.25,0,0,1,.14-.34,3.67,3.67,0,0,1,4.79,2,3.67,3.67,0,0,1-2,4.79Z"/>
    <path class="a" d="M149.92,217a.26.26,0,0,1-.26-.22.27.27,0,0,1,.22-.3A6.18,6.18,0,1,0,148,204.27a.27.27,0,0,1-.3-.22.27.27,0,0,1,.22-.3A6.71,6.71,0,0,1,150,217Z"/>
    <path class="a" d="M192,163.42a6.27,6.27,0,0,1-6.12-5.1.27.27,0,0,1,.21-.31.27.27,0,0,1,.3.21,5.73,5.73,0,0,0,11.26-2.1.25.25,0,0,1,.2-.3.27.27,0,0,1,.31.21,6.25,6.25,0,0,1-5,7.28A6.42,6.42,0,0,1,192,163.42Z"/>
    <path class="a" d="M236.94,93.09h-.08a.27.27,0,0,1-.17-.33,5.39,5.39,0,1,0-10.29-3.23.27.27,0,0,1-.33.17.27.27,0,0,1-.17-.33,5.92,5.92,0,0,1,11.29,3.55A.27.27,0,0,1,236.94,93.09Z"/>
    <path class="a" d="M126.57,22.51l-.11,0a5.9,5.9,0,0,1-2.95-7.8,5.9,5.9,0,0,1,7.8-2.95.26.26,0,0,1,.13.34.27.27,0,0,1-.35.13,5.38,5.38,0,1,0-4.42,9.8.27.27,0,0,1,.13.35A.26.26,0,0,1,126.57,22.51Z"/>
    <path class="a" d="M180.83,153.73h-.08a.27.27,0,0,1-.17-.33,4.89,4.89,0,0,0-3-6.21,4.87,4.87,0,0,0-6.2,3,.25.25,0,0,1-.33.16.25.25,0,0,1-.16-.33,5.39,5.39,0,0,1,6.86-3.35,5.41,5.41,0,0,1,3.36,6.87A.27.27,0,0,1,180.83,153.73Z"/>
    <path class="a" d="M200,103.42a5.75,5.75,0,0,1-5.62-4.61.25.25,0,0,1,.2-.3.26.26,0,0,1,.31.2,5.22,5.22,0,1,0,10.23-2.07.25.25,0,0,1,.2-.3.26.26,0,0,1,.31.2,5.74,5.74,0,0,1-4.49,6.76A5.52,5.52,0,0,1,200,103.42Z"/>
    <path class="a" d="M98.82,173.52a1.83,1.83,0,0,1-.33,0,2.21,2.21,0,0,1-1.44-.87.26.26,0,0,1,.42-.31,1.67,1.67,0,0,0,2.33.36,1.67,1.67,0,0,0,.36-2.33.26.26,0,1,1,.42-.31,2.2,2.2,0,0,1-.47,3.06A2.16,2.16,0,0,1,98.82,173.52Z"/>
    <path class="a" d="M124.24,240h0a.26.26,0,0,1-.23-.29,4.19,4.19,0,1,0-8.32-.94.26.26,0,0,1-.29.23.25.25,0,0,1-.23-.29,4.71,4.71,0,0,1,9.36,1.06A.26.26,0,0,1,124.24,240Z"/>
    <path class="a" d="M115.63,212a.26.26,0,0,1-.19-.07,3.75,3.75,0,0,1,0-5.3,3.7,3.7,0,0,1,2.65-1.1h0a3.72,3.72,0,0,1,2.65,1.1.26.26,0,1,1-.37.37,3.21,3.21,0,0,0-2.28-.95h0a3.23,3.23,0,0,0-2.29,5.51.27.27,0,0,1,0,.37A.26.26,0,0,1,115.63,212Z"/>
    <path class="a" d="M178.45,50.43a2.37,2.37,0,0,1-2.22-1.53,2.36,2.36,0,0,1,1.37-3,.26.26,0,0,1,.34.15.26.26,0,0,1-.15.33,1.85,1.85,0,0,0,1.31,3.46.27.27,0,0,1,.34.15.26.26,0,0,1-.16.33A2.22,2.22,0,0,1,178.45,50.43Z"/>
    <path class="a" d="M266,144.09a5.73,5.73,0,0,1-2.29-11,.26.26,0,0,1,.34.13.27.27,0,0,1-.14.35,5.2,5.2,0,0,0,.17,9.61,5.14,5.14,0,0,0,4-.07.28.28,0,0,1,.35.14.27.27,0,0,1-.14.34A5.72,5.72,0,0,1,266,144.09Z"/>
    <path class="a" d="M55.61,180h-.06a1.78,1.78,0,0,1-1.36-2.12,1.79,1.79,0,0,1,2.12-1.37.26.26,0,0,1,.2.31.25.25,0,0,1-.31.2,1.27,1.27,0,0,0-1.33,1.92,1.21,1.21,0,0,0,.79.55.26.26,0,0,1,.2.31A.26.26,0,0,1,55.61,180Z"/>
    <path class="a" d="M182.78,212.54a.28.28,0,0,1-.2-.09,8.65,8.65,0,1,1,13.14-11.26.26.26,0,1,1-.4.34A8.13,8.13,0,1,0,183,212.11a.27.27,0,0,1,0,.37A.27.27,0,0,1,182.78,212.54Z"/>
    <path class="a" d="M195,87a2.86,2.86,0,0,1-1.49-.43,2.79,2.79,0,0,1-1.27-1.76.26.26,0,0,1,.19-.31.26.26,0,0,1,.32.19,2.32,2.32,0,1,0,4.51-1.07.26.26,0,0,1,.5-.12,2.84,2.84,0,0,1-2.1,3.42A3,3,0,0,1,195,87Z"/>
    <path class="a" d="M163.39,9.92a5.13,5.13,0,0,1-1.91-.36.27.27,0,0,1-.14-.34.26.26,0,0,1,.34-.15A4.62,4.62,0,1,0,165.11.5.25.25,0,0,1,165,.16.25.25,0,0,1,165.3,0a5.13,5.13,0,0,1-1.91,9.9Z"/>
    <path class="a" d="M239.27,195.39h-.07a7,7,0,0,1-4.26-3.3,6.93,6.93,0,0,1-.68-5.34,7,7,0,0,1,8.63-4.94.26.26,0,0,1,.18.32.25.25,0,0,1-.32.18,6.51,6.51,0,0,0-3.42,12.57.27.27,0,0,1,.19.32A.26.26,0,0,1,239.27,195.39Z"/>
    <path class="a" d="M143.61,162h0a3.6,3.6,0,0,1-2.21-6.29,3.57,3.57,0,0,1,2.6-.92.27.27,0,0,1,.25.28.24.24,0,0,1-.28.24,3.09,3.09,0,1,0-.33,6.17.26.26,0,0,1,.24.28A.25.25,0,0,1,143.61,162Z"/>
    <path class="a" d="M257.73,20.17A7.27,7.27,0,0,1,251.3,9.52a.26.26,0,1,1,.46.24,6.75,6.75,0,1,0,12,6.27.28.28,0,0,1,.35-.11.26.26,0,0,1,.11.35A7.28,7.28,0,0,1,257.73,20.17Z"/>
    <path class="a" d="M140,5.15a.23.23,0,0,1-.11,0,.24.24,0,0,1-.12-.34,2.22,2.22,0,0,0,.08-1.66,2.17,2.17,0,0,0-4-.2.27.27,0,0,1-.35.12.24.24,0,0,1-.12-.34A2.69,2.69,0,1,1,140.19,5,.28.28,0,0,1,140,5.15Z"/>
    <path class="a" d="M202.16,75a.26.26,0,0,1-.11-.49,5.12,5.12,0,0,0-4.56-9.17.26.26,0,0,1-.35-.12.26.26,0,0,1,.12-.35,5.63,5.63,0,0,1,7.56,2.54A5.66,5.66,0,0,1,202.28,75Z"/>
    <path class="a" d="M250.09,77.4a2.83,2.83,0,0,1-1.4-.38.25.25,0,0,1-.09-.35.25.25,0,0,1,.35-.1,2.3,2.3,0,0,0,3.14-.84,2.31,2.31,0,0,0-.84-3.14.26.26,0,0,1-.1-.36.27.27,0,0,1,.36-.09,2.82,2.82,0,0,1,1,3.85,2.76,2.76,0,0,1-1.71,1.31A2.64,2.64,0,0,1,250.09,77.4Z"/>
    <path class="a" d="M261.79,200.62h0a8.71,8.71,0,1,1,1.41-17.36.27.27,0,0,1,.24.28.26.26,0,0,1-.28.24,8.19,8.19,0,1,0-1.33,16.32.28.28,0,0,1,.24.29A.26.26,0,0,1,261.79,200.62Z"/>
    <path class="a" d="M251,271a2.21,2.21,0,0,1-.75-.14,2.08,2.08,0,0,1-1.18-1.11,2.12,2.12,0,0,1,0-1.62.26.26,0,0,1,.33-.16.27.27,0,0,1,.16.34,1.6,1.6,0,1,0,3,1.13.26.26,0,1,1,.49.19A2.12,2.12,0,0,1,251,271Z"/>
    <path class="a" d="M65,256.65A3,3,0,0,1,62,254a2.93,2.93,0,0,1,.62-2.21.25.25,0,0,1,.36-.05.26.26,0,0,1,0,.37,2.47,2.47,0,1,0,3.89,3.06.26.26,0,0,1,.41.33,3,3,0,0,1-2,1.12Z"/>
    <path class="a" d="M88.76,61.61a.28.28,0,0,1-.24-.15,6.56,6.56,0,0,1,3-8.76,6.55,6.55,0,0,1,8.75,3,.26.26,0,0,1-.12.35.25.25,0,0,1-.34-.12A6,6,0,1,0,89,61.23a.26.26,0,0,1-.12.35A.23.23,0,0,1,88.76,61.61Z"/>
    <path class="a" d="M152.13,6h-.06a2.32,2.32,0,0,1-1.67-2.82,2.36,2.36,0,0,1,1.07-1.42,2.33,2.33,0,0,1,1.75-.25.26.26,0,1,1-.13.51,1.8,1.8,0,0,0-.89,3.48.26.26,0,0,1,.19.31A.27.27,0,0,1,152.13,6Z"/>
    <path class="a" d="M45.36,131.06h-.21a8.25,8.25,0,0,1-8-8.44.27.27,0,0,1,.27-.25.25.25,0,0,1,.25.27,7.71,7.71,0,0,0,7.51,7.89,7.57,7.57,0,0,0,5.5-2.11,7.68,7.68,0,0,0,2.4-5.39.26.26,0,1,1,.52,0A8.24,8.24,0,0,1,45.36,131.06Z"/>
    <path class="a" d="M183.62,255.28a8.57,8.57,0,0,1-3.08-.58,8.48,8.48,0,0,1-4.79-11,.26.26,0,0,1,.34-.15.27.27,0,0,1,.15.34A7.95,7.95,0,1,0,191,249.72a.26.26,0,0,1,.34-.15.27.27,0,0,1,.15.34A8.49,8.49,0,0,1,183.62,255.28Z"/>
    <path class="a" d="M219.1,34a1.83,1.83,0,0,1-.33,0,2.47,2.47,0,0,1-1.17-4.42.26.26,0,0,1,.31.42,2,2,0,1,0,2.38,3.1.26.26,0,1,1,.31.41A2.41,2.41,0,0,1,219.1,34Z"/>
    <path class="a" d="M56.92,276.09a5.73,5.73,0,0,1-5.6-4.54.26.26,0,0,1,.21-.31.27.27,0,0,1,.3.2A5.2,5.2,0,0,0,62,269.3a.26.26,0,0,1,.2-.31.26.26,0,0,1,.31.2A5.72,5.72,0,0,1,58.1,276,5.33,5.33,0,0,1,56.92,276.09Z"/>
    <path class="a" d="M54.74,69a.23.23,0,0,1-.22-.13,1.77,1.77,0,0,1-.16-1.37,1.82,1.82,0,0,1,.86-1.08,1.81,1.81,0,0,1,2.45.71.26.26,0,0,1-.46.25,1.22,1.22,0,0,0-.76-.61,1.29,1.29,0,0,0-1.59.87,1.33,1.33,0,0,0,.11,1,.25.25,0,0,1-.1.35A.28.28,0,0,1,54.74,69Z"/>
    <path class="a" d="M205.45,36.27a.23.23,0,0,1-.15-.05.26.26,0,0,1-.06-.36,1.46,1.46,0,0,0,.27-1.09,1.47,1.47,0,0,0-2.63-.64.26.26,0,0,1-.37.06.26.26,0,0,1,0-.36,2,2,0,0,1,3.56.86,2,2,0,0,1-.36,1.48A.25.25,0,0,1,205.45,36.27Z"/>
    <path class="a" d="M205.12,274a5.26,5.26,0,0,1-5-3.66.26.26,0,0,1,.17-.32.26.26,0,0,1,.33.16,4.73,4.73,0,0,0,5.95,3.07,4.74,4.74,0,0,0,3.07-5.95.26.26,0,0,1,.17-.33.26.26,0,0,1,.32.17,5.25,5.25,0,0,1-5,6.86Z"/>
    <path class="a" d="M51,85.45h0a.25.25,0,0,1-.23-.28A4.2,4.2,0,0,0,47,80.56a4.19,4.19,0,0,0-4.6,3.74.27.27,0,0,1-.29.23.25.25,0,0,1-.23-.28,4.71,4.71,0,1,1,9.38,1A.27.27,0,0,1,51,85.45Z"/>
    <path class="a" d="M58.82,202.65h0a6.55,6.55,0,0,1,2.87-12.79.26.26,0,0,1-.11.51,6,6,0,0,0-4.55.79,6,6,0,0,0-1.88,8.33,6,6,0,0,0,3.78,2.65.28.28,0,0,1,.2.32A.27.27,0,0,1,58.82,202.65Z"/>
    <path class="a" d="M253.5,173.46a.2.2,0,0,1-.11,0,1.91,1.91,0,0,1-.85-2.57,1.91,1.91,0,0,1,2.57-.85.26.26,0,0,1-.24.46,1.41,1.41,0,0,0-1.87.62,1.44,1.44,0,0,0-.08,1.06,1.37,1.37,0,0,0,.7.81.27.27,0,0,1,.12.35A.28.28,0,0,1,253.5,173.46Z"/>
    <path class="a" d="M289.58,107A4.9,4.9,0,0,1,286,98.78a4.86,4.86,0,0,1,3.41-1.56.26.26,0,0,1,.27.25.25.25,0,0,1-.25.27,4.34,4.34,0,0,0-3.05,1.4,4.29,4.29,0,0,0-1.17,3.14,4.37,4.37,0,0,0,4.53,4.23.26.26,0,0,1,.27.25.26.26,0,0,1-.25.27Z"/>
    <path class="a" d="M285.12,208.79l-.52,0a5.16,5.16,0,0,1-3.54-1.89,5.22,5.22,0,0,1-1.17-3.85.26.26,0,0,1,.28-.23.26.26,0,0,1,.24.28,4.73,4.73,0,1,0,9.41.93.27.27,0,0,1,.29-.23.26.26,0,0,1,.23.28,5.24,5.24,0,0,1-5.22,4.74Z"/>
    <path class="a" d="M97.14,38.94a.25.25,0,0,1-.26-.24,8.55,8.55,0,1,1,17-1.9.26.26,0,0,1-.52.06A8,8,0,1,0,97.4,38.65a.26.26,0,0,1-.23.28Z"/>
    <path class="a" d="M40.68,99.09h-.14A1.73,1.73,0,0,1,39,97.24a.26.26,0,0,1,.52,0,1.19,1.19,0,0,0,2,1,1.15,1.15,0,0,0,.42-.81.25.25,0,0,1,.28-.24.27.27,0,0,1,.24.28,1.72,1.72,0,0,1-.6,1.17A1.68,1.68,0,0,1,40.68,99.09Z"/>
    <path class="a" d="M102.29,79.09a.27.27,0,0,1-.14,0A8.57,8.57,0,0,1,99.5,67.23a8.57,8.57,0,0,1,11.82-2.65.26.26,0,0,1,.09.36.27.27,0,0,1-.36.08,8,8,0,0,0-8.62,13.59.26.26,0,0,1,.08.36A.25.25,0,0,1,102.29,79.09Z"/>
    <path class="a" d="M140.06,22.61a2.34,2.34,0,0,1-.38,0,.27.27,0,0,1-.21-.31.26.26,0,0,1,.3-.21,1.57,1.57,0,0,0,1.83-1.25A1.57,1.57,0,0,0,140.34,19a.27.27,0,0,1-.21-.3.26.26,0,0,1,.31-.21,2.09,2.09,0,0,1,1.67,2.43,2,2,0,0,1-.87,1.34A2,2,0,0,1,140.06,22.61Z"/>
    <path class="a" d="M204.65,202a.25.25,0,0,1-.24-.16.25.25,0,0,1,.13-.34,5.23,5.23,0,1,0-4.14-9.61.26.26,0,0,1-.2-.48,5.75,5.75,0,0,1,7.62,7.41,5.68,5.68,0,0,1-3.07,3.15Z"/>
    <path class="a" d="M46.89,8.52a2.28,2.28,0,0,1-2.26-2.06,2.28,2.28,0,0,1,.52-1.66A2.24,2.24,0,0,1,46.69,4a.26.26,0,0,1,.28.23.26.26,0,0,1-.24.28,1.76,1.76,0,0,0-1.58,1.9,1.68,1.68,0,0,0,.62,1.18,1.72,1.72,0,0,0,1.28.4.26.26,0,0,1,.28.24.26.26,0,0,1-.23.28Z"/>
    <path class="a" d="M118.08,3.86a.23.23,0,0,1-.15,0,.26.26,0,0,1-.06-.36,1.19,1.19,0,0,0-.32-1.64,1.17,1.17,0,0,0-.89-.19,1.16,1.16,0,0,0-.75.5.27.27,0,0,1-.37.07.25.25,0,0,1-.06-.36,1.68,1.68,0,0,1,1.09-.72,1.71,1.71,0,0,1,1.73,2.64A.28.28,0,0,1,118.08,3.86Z"/>
    <path class="a" d="M195.5,178.75a7.4,7.4,0,0,1-7.37-6.77.26.26,0,0,1,.23-.28.27.27,0,0,1,.29.24,6.89,6.89,0,0,0,13.73-1.21.26.26,0,0,1,.24-.28.26.26,0,0,1,.28.23,7.43,7.43,0,0,1-6.74,8Q195.83,178.75,195.5,178.75Z"/>
    <path class="a" d="M93.09,247.2h0a2.29,2.29,0,1,1,.49-4.55.26.26,0,0,1,.23.29.25.25,0,0,1-.28.23,1.77,1.77,0,1,0-.38,3.51.27.27,0,0,1,.23.29A.27.27,0,0,1,93.09,247.2Z"/>
    <path class="a" d="M218.76,290.69a.26.26,0,0,1-.26-.25.26.26,0,0,1,.25-.27,4.27,4.27,0,0,0-.27-8.54.26.26,0,0,1,0-.52,4.79,4.79,0,0,1,.3,9.58Z"/>
    <path class="a" d="M227.16,24.12a.28.28,0,0,1-.13,0,.27.27,0,0,1-.1-.36,1.84,1.84,0,0,0,.2-1.43,1.89,1.89,0,0,0-3.45-.48.25.25,0,0,1-.35.1.26.26,0,0,1-.1-.36,2.41,2.41,0,0,1,3.29-.86,2.38,2.38,0,0,1,1.11,1.47,2.32,2.32,0,0,1-.25,1.82A.24.24,0,0,1,227.16,24.12Z"/>
    <path class="a" d="M80.14,262.57a5.45,5.45,0,0,1-1.86-.33,5.34,5.34,0,0,1-3-2.79.26.26,0,0,1,.12-.35.27.27,0,0,1,.35.13,4.8,4.8,0,0,0,2.73,2.52,4.86,4.86,0,0,0,6.09-6.6.25.25,0,0,1,.12-.34.26.26,0,0,1,.35.12,5.39,5.39,0,0,1-4.88,7.64Z"/>
    <path class="a" d="M274.88,117.7a8.6,8.6,0,0,1-2.4-.35,8.5,8.5,0,0,1-5.1-4.09.26.26,0,0,1,.11-.35.26.26,0,0,1,.35.1,8,8,0,1,0,14.05-7.71.25.25,0,0,1,.1-.35.26.26,0,0,1,.35.1,8.54,8.54,0,0,1-7.46,12.65Z"/>
    <path class="a" d="M34,282.85a5.1,5.1,0,0,1-5-4.42.27.27,0,0,1,.23-.29.26.26,0,0,1,.29.22,4.55,4.55,0,0,0,9-1.17.26.26,0,0,1,.51-.07,5.06,5.06,0,0,1-4.37,5.68A4.89,4.89,0,0,1,34,282.85Z"/>
    <path class="a" d="M287.55,243.3a.25.25,0,0,1-.21-.1.27.27,0,0,1,.06-.37,3.68,3.68,0,0,0-4.4-5.9.26.26,0,0,1-.36-.06.25.25,0,0,1,.05-.36,4.2,4.2,0,1,1,5,6.74A.24.24,0,0,1,287.55,243.3Z"/>
    <path class="a" d="M170.93,268.87a.33.33,0,0,1-.14,0,.27.27,0,0,1-.09-.36,1.92,1.92,0,0,0,.21-1.48,2,2,0,0,0-.9-1.2,2,2,0,0,0-2.67.69.25.25,0,0,1-.36.09.25.25,0,0,1-.09-.35,2.47,2.47,0,1,1,4.26,2.52A.27.27,0,0,1,170.93,268.87Z"/>
    <path class="a" d="M217.66,59.67a2.44,2.44,0,0,1-1.76-.76.25.25,0,0,1,0-.36.26.26,0,0,1,.37,0A1.91,1.91,0,0,0,219,55.93a.26.26,0,1,1,.37-.36,2.43,2.43,0,0,1-.08,3.43A2.4,2.4,0,0,1,217.66,59.67Z"/>
    <path class="a" d="M192.17,289.66h-.08a.26.26,0,0,1-.26-.26.26.26,0,0,1,.27-.26,3.5,3.5,0,0,0,3.57-3.44,3.52,3.52,0,0,0-3.44-3.57.26.26,0,0,1-.25-.26.25.25,0,0,1,.27-.26,4,4,0,0,1-.08,8.05Z"/>
    <path class="a" d="M34,72.4a6.44,6.44,0,0,1-3-.75.27.27,0,0,1-.11-.36.26.26,0,0,1,.35-.1A6,6,0,0,0,39.3,68.7a6,6,0,0,0-2.48-8.08.26.26,0,0,1-.11-.35.25.25,0,0,1,.35-.11A6.5,6.5,0,0,1,34,72.4Z"/>
    <path class="a" d="M232.82,69.61a4.53,4.53,0,0,1-.52,0,4.59,4.59,0,0,1-4-5.06.27.27,0,0,1,.29-.23.27.27,0,0,1,.23.29,4,4,0,0,0,8,.92.24.24,0,0,1,.28-.23.25.25,0,0,1,.23.29A4.57,4.57,0,0,1,232.82,69.61Z"/>
    <path class="a" d="M100.56,213.87a1.77,1.77,0,0,1-.56-.09.26.26,0,0,1-.18-.32.26.26,0,0,1,.32-.18,1.47,1.47,0,0,0,1.84-1,1.44,1.44,0,0,0-.12-1.13,1.46,1.46,0,0,0-.88-.71.25.25,0,0,1-.17-.32.26.26,0,0,1,.32-.18,2,2,0,0,1-.57,3.93Z"/>
    <path class="a" d="M93,193.69a.26.26,0,0,1-.23-.15.25.25,0,0,1,.12-.34,5.32,5.32,0,1,0-4.66-9.56.26.26,0,1,1-.23-.47,5.84,5.84,0,1,1,5.12,10.49A.27.27,0,0,1,93,193.69Z"/>
    <path class="a" d="M81.73,139.78a2.76,2.76,0,0,1-.57-.06.26.26,0,0,1-.2-.31.26.26,0,0,1,.3-.2,2.26,2.26,0,0,0,2.67-1.74,2.22,2.22,0,0,0-.31-1.7,2.25,2.25,0,0,0-1.43-1,.26.26,0,1,1,.11-.51,2.72,2.72,0,0,1,1.75,1.2,2.69,2.69,0,0,1,.39,2.08A2.77,2.77,0,0,1,81.73,139.78Z"/>
    <path class="a" d="M66.68,231.92a1.81,1.81,0,0,1-.52-3.54.26.26,0,0,1,.32.18.26.26,0,0,1-.17.32,1.32,1.32,0,0,0-.77.62,1.29,1.29,0,0,0,1.5,1.85.27.27,0,0,1,.33.17.27.27,0,0,1-.18.33A1.79,1.79,0,0,1,66.68,231.92Z"/>
    <path class="a" d="M74.24,37.77a.23.23,0,0,1-.11,0A.24.24,0,0,1,74,37.4,6.3,6.3,0,0,0,62.63,32a.26.26,0,0,1-.34.13.27.27,0,0,1-.13-.35,6.82,6.82,0,0,1,12.32,5.84A.28.28,0,0,1,74.24,37.77Z"/>
    <path class="a" d="M288.68,270.22a2.42,2.42,0,0,1-1.05-.25,2.36,2.36,0,0,1-1.06-3.17,2.32,2.32,0,0,1,1.36-1.19.26.26,0,0,1,.17.49,1.85,1.85,0,0,0,1.17,3.5.26.26,0,1,1,.16.49A2.15,2.15,0,0,1,288.68,270.22Z"/>
    <path class="a" d="M290.59,33.46h0a5.51,5.51,0,1,1,1-11,.28.28,0,0,1,.24.29.28.28,0,0,1-.29.23,5,5,0,0,0-.89,9.93.27.27,0,0,1,.24.29A.26.26,0,0,1,290.59,33.46Z"/>
    <path class="a" d="M32.35,40.81h0a.26.26,0,0,1-.22-.29L33,32.88a.25.25,0,0,1,.12-.19.31.31,0,0,1,.23,0l6.94,2.48.88-7.32a.25.25,0,0,1,.12-.19.24.24,0,0,1,.22,0l6.94,2.48.87-7.31a.28.28,0,0,1,.12-.19.27.27,0,0,1,.23,0l7.23,2.59a.26.26,0,0,1,.16.34.26.26,0,0,1-.33.15l-6.93-2.48-.88,7.31a.26.26,0,0,1-.34.22l-6.94-2.48-.88,7.31a.22.22,0,0,1-.12.19.28.28,0,0,1-.22,0L33.5,33.26l-.89,7.32A.26.26,0,0,1,32.35,40.81Z"/>
    <path class="a" d="M194.46,22.11a.24.24,0,0,1-.18-.07.24.24,0,0,1-.08-.21l.42-7.28-7.19,1.2a.25.25,0,0,1-.22-.06.27.27,0,0,1-.09-.21l.43-7.27L180.36,9.4a.24.24,0,0,1-.21-.06.27.27,0,0,1-.09-.21l.45-7.59a.26.26,0,1,1,.52,0l-.43,7.27,7.19-1.2a.22.22,0,0,1,.21.06.27.27,0,0,1,.09.21l-.43,7.27L194.85,14a.25.25,0,0,1,.22.06.27.27,0,0,1,.09.21l-.43,7.28,7.2-1.19a.25.25,0,0,1,.3.21.26.26,0,0,1-.22.3l-7.51,1.25Z"/>
    <path class="a" d="M246,60.71h-.06a.26.26,0,0,1-.2-.31l.69-3.1a.28.28,0,0,1,.14-.18.31.31,0,0,1,.23,0l2.58,1.22.61-2.79a.28.28,0,0,1,.14-.18.31.31,0,0,1,.23,0l2.57,1.22.62-2.78a.24.24,0,0,1,.14-.18.22.22,0,0,1,.22,0L256.73,55a.26.26,0,0,1-.22.48l-2.57-1.22L253.32,57a.25.25,0,0,1-.36.18L250.38,56l-.62,2.79a.23.23,0,0,1-.13.17.27.27,0,0,1-.23,0l-2.58-1.22-.62,2.78A.26.26,0,0,1,246,60.71Z"/>
    <path class="a" d="M118.5,129.26a.25.25,0,0,1-.26-.22l-.65-5.07a.26.26,0,0,1,.28-.3l4.77.46-.61-4.75a.23.23,0,0,1,.07-.21.26.26,0,0,1,.21-.08l4.76.46-.61-4.75a.27.27,0,0,1,.07-.21.29.29,0,0,1,.21-.08l5.09.49a.26.26,0,0,1,.23.29.26.26,0,0,1-.28.23l-4.76-.46.61,4.74a.29.29,0,0,1-.07.22.28.28,0,0,1-.21.08l-4.76-.46.61,4.74a.29.29,0,0,1-.07.22.35.35,0,0,1-.22.08l-4.76-.46.6,4.75a.26.26,0,0,1-.22.29Z"/>
    <path class="a" d="M2.7,5.09A.24.24,0,0,1,2.52,5L1.41,4a.27.27,0,0,1,0-.37.26.26,0,0,1,.37,0l.87.82.61-1a.25.25,0,0,1,.4-.06l.88.82.61-1A.24.24,0,0,1,5.32,3a.29.29,0,0,1,.22.07l.87.82.61-1a.27.27,0,0,1,.36-.09.27.27,0,0,1,.09.36L6.7,4.43a.29.29,0,0,1-.19.13.29.29,0,0,1-.22-.07l-.87-.83-.61,1a.25.25,0,0,1-.19.12.25.25,0,0,1-.21-.06l-.88-.83-.6,1a.28.28,0,0,1-.19.12Z"/>
    <path class="a" d="M139.08,282.19a.22.22,0,0,1-.16-.05.26.26,0,0,1,0-.37l4.11-5.26a.28.28,0,0,1,.21-.1.26.26,0,0,1,.2.1l4,4.92,3.9-5a.28.28,0,0,1,.21-.1h0a.26.26,0,0,1,.2.1l4,4.92,3.91-5a.3.3,0,0,1,.2-.1h0a.26.26,0,0,1,.2.1l4.22,5.17a.26.26,0,0,1-.41.33l-4-4.92-3.91,5c-.05.07-.13.13-.2.1a.25.25,0,0,1-.2-.09l-4-4.92-3.9,5a.2.2,0,0,1-.21.1.27.27,0,0,1-.2-.09l-4-4.92-3.91,5A.25.25,0,0,1,139.08,282.19Z"/>
    <path class="a" d="M2.83,136.49h0l-2.15,0a.26.26,0,0,1-.26-.26.26.26,0,0,1,.26-.26h0l1.82,0-.39-1.79a.31.31,0,0,1,.06-.22.24.24,0,0,1,.2-.09l1.83,0-.39-1.78a.29.29,0,0,1,.06-.22.22.22,0,0,1,.2-.1l1.83,0L5.52,130a.26.26,0,0,1,.21-.31.25.25,0,0,1,.3.2l.46,2.1a.29.29,0,0,1-.06.22.42.42,0,0,1-.2.1l-1.83,0,.38,1.78a.25.25,0,0,1,0,.22.32.32,0,0,1-.2.1l-1.83,0,.39,1.79a.3.3,0,0,1-.06.22A.25.25,0,0,1,2.83,136.49Z"/>
    <path class="a" d="M185,128.2h-.07a.24.24,0,0,1-.17-.32l2.23-7.39a.27.27,0,0,1,.16-.17.25.25,0,0,1,.22,0l6.43,3.65,2.14-7.08a.26.26,0,0,1,.15-.17.26.26,0,0,1,.23,0l6.42,3.65,2.14-7.07a.26.26,0,0,1,.15-.17.28.28,0,0,1,.22,0l6.71,3.82a.26.26,0,0,1,.1.35.27.27,0,0,1-.36.1l-6.42-3.65-2.13,7.07a.27.27,0,0,1-.16.17.25.25,0,0,1-.22,0l-6.43-3.65-2.13,7.08a.27.27,0,0,1-.38.15l-6.43-3.65L185.22,128A.25.25,0,0,1,185,128.2Z"/>
    <path class="a" d="M124.38,193.89l-.09,0-7.77-3a.22.22,0,0,1-.15-.16.28.28,0,0,1,0-.22l4.47-6.64-7.45-2.89a.27.27,0,0,1-.16-.17.25.25,0,0,1,0-.22l4.47-6.63L110.31,171a.26.26,0,0,1-.15-.17.29.29,0,0,1,0-.22l4.66-6.89a.26.26,0,1,1,.43.29l-4.47,6.62,7.45,2.89a.27.27,0,0,1,.16.17.25.25,0,0,1,0,.22l-4.47,6.63,7.46,2.89a.26.26,0,0,1,.15.17.29.29,0,0,1,0,.22L117,190.49l7.46,2.9a.26.26,0,0,1-.1.5Z"/>
    <path class="a" d="M36.29,228.19a.2.2,0,0,1-.13,0A.26.26,0,0,1,36,228l-.32-2.42-2.29.85a.26.26,0,0,1-.23,0,.28.28,0,0,1-.12-.19l-.32-2.42-2.29.85a.3.3,0,0,1-.23,0,.25.25,0,0,1-.12-.19l-.36-2.75a.26.26,0,0,1,.51-.07l.32,2.43,2.29-.86a.27.27,0,0,1,.23,0,.28.28,0,0,1,.12.18l.32,2.43,2.29-.85a.26.26,0,0,1,.23,0,.25.25,0,0,1,.12.19l.33,2.42,2.29-.85a.27.27,0,0,1,.34.15.26.26,0,0,1-.16.34l-2.6,1Z"/>
    <path class="a" d="M68.52,220.31a.27.27,0,0,1-.23-.14l-2.17-4-3.38,3a.24.24,0,0,1-.21.06.26.26,0,0,1-.19-.13l-2.17-4-3.38,3a.29.29,0,0,1-.22.06.24.24,0,0,1-.18-.13l-2.18-4-3.38,3a.27.27,0,0,1-.37,0,.25.25,0,0,1,0-.36l3.63-3.22a.29.29,0,0,1,.22-.06.29.29,0,0,1,.18.13l2.18,4,3.38-3a.25.25,0,0,1,.21-.07.3.3,0,0,1,.19.14l2.17,3.95,3.38-3a.26.26,0,0,1,.22-.07.31.31,0,0,1,.18.14l2.33,4.24a.25.25,0,0,1-.11.35A.19.19,0,0,1,68.52,220.31Z"/>
    <path class="a" d="M88.43,206a.26.26,0,0,1-.25-.2L87.77,204l-1.69.81a.3.3,0,0,1-.23,0,.28.28,0,0,1-.14-.18l-.41-1.83-1.69.81a.22.22,0,0,1-.22,0,.24.24,0,0,1-.14-.18l-.42-1.82-1.69.81a.27.27,0,0,1-.35-.13.25.25,0,0,1,.12-.34l2-.95a.22.22,0,0,1,.22,0,.25.25,0,0,1,.15.17l.41,1.83,1.69-.81a.3.3,0,0,1,.23,0,.28.28,0,0,1,.14.18l.41,1.82,1.69-.8a.22.22,0,0,1,.22,0,.24.24,0,0,1,.14.17l.49,2.15a.26.26,0,0,1-.2.31Z"/>
    <path class="a" d="M132.09,265.42h0a.25.25,0,0,1-.19-.11l-2-3.14-2.61,2.68a.28.28,0,0,1-.21.08.28.28,0,0,1-.2-.12l-2-3.14-2.61,2.68a.28.28,0,0,1-.21.08.28.28,0,0,1-.2-.12l-2.21-3.41a.26.26,0,0,1,.44-.29l2,3.14,2.61-2.68a.28.28,0,0,1,.21-.08.32.32,0,0,1,.2.12l2,3.14,2.61-2.68a.3.3,0,0,1,.22-.08.25.25,0,0,1,.19.12l2,3.14,2.61-2.68a.26.26,0,0,1,.38.36l-2.84,2.92A.27.27,0,0,1,132.09,265.42Z"/>
    <path class="a" d="M103.09,198.54h0l-1.84-.28a.27.27,0,0,1-.22-.3.27.27,0,0,1,.3-.22l1.52.23-.11-1.53a.24.24,0,0,1,.08-.21.28.28,0,0,1,.21-.07l1.52.24-.11-1.54a.29.29,0,0,1,.09-.21.22.22,0,0,1,.21-.06l1.52.23-.11-1.54a.27.27,0,0,1,.24-.28.26.26,0,0,1,.28.24l.14,1.86a.27.27,0,0,1-.09.21.25.25,0,0,1-.21.07l-1.52-.23.11,1.53a.3.3,0,0,1-.08.21.26.26,0,0,1-.22.07l-1.52-.23.11,1.53a.24.24,0,0,1-.08.21A.24.24,0,0,1,103.09,198.54Z"/>
    <path class="a" d="M2.83,261.7a.26.26,0,0,1-.25-.17l-.8-2.27a.24.24,0,0,1,0-.22.22.22,0,0,1,.19-.12l2.07-.25-.7-2a.26.26,0,0,1,0-.23.33.33,0,0,1,.19-.12l2.07-.24-.7-2a.24.24,0,0,1,0-.22.3.3,0,0,1,.2-.13l2.38-.28a.26.26,0,0,1,.06.52l-2.06.24.7,2a.24.24,0,0,1,0,.23.28.28,0,0,1-.19.12L4,256.84l.7,2a.31.31,0,0,1,0,.23.28.28,0,0,1-.19.12l-2.06.24.69,2a.26.26,0,0,1-.16.33Z"/>
    <path class="a" d="M18.74,291.3a.23.23,0,0,1-.16-.06l-1.17-.95a.25.25,0,0,1,0-.36.26.26,0,0,1,.36,0l.92.74.52-1.06a.26.26,0,0,1,.4-.09l.92.75.52-1.06a.22.22,0,0,1,.17-.14.25.25,0,0,1,.22.05l.93.74.52-1.06a.26.26,0,0,1,.47.23l-.67,1.35a.26.26,0,0,1-.18.14.25.25,0,0,1-.22-.05l-.92-.74-.52,1.06a.26.26,0,0,1-.18.14.3.3,0,0,1-.22-.05l-.92-.75L19,291.15a.25.25,0,0,1-.18.14Z"/>
    <path class="a" d="M31.08,19a.23.23,0,0,1-.14,0l-1.19-.73a.27.27,0,0,1-.09-.36.26.26,0,0,1,.36-.08l.91.56.35-1a.26.26,0,0,1,.38-.14l.91.56.35-1a.22.22,0,0,1,.15-.16.26.26,0,0,1,.23,0l.91.56.35-1a.26.26,0,0,1,.33-.16.26.26,0,0,1,.16.33l-.45,1.32a.26.26,0,0,1-.15.17.31.31,0,0,1-.23,0l-.91-.56-.35,1a.25.25,0,0,1-.16.16.25.25,0,0,1-.22,0l-.91-.56-.35,1a.26.26,0,0,1-.15.17Z"/>
    <path class="a" d="M192.32,37.56a.25.25,0,0,1-.22-.12l-2.82-4.72-4,3.79a.26.26,0,0,1-.22.07.25.25,0,0,1-.18-.12l-2.82-4.72-4,3.79a.24.24,0,0,1-.21.07.25.25,0,0,1-.19-.12l-2.83-4.72-4,3.79a.26.26,0,0,1-.37,0,.25.25,0,0,1,0-.36l4.22-4a.26.26,0,0,1,.4.05L178,34.93l4-3.79a.26.26,0,0,1,.22-.07.25.25,0,0,1,.19.12l2.82,4.72,4-3.79a.26.26,0,0,1,.22-.07.25.25,0,0,1,.18.12l3,5a.27.27,0,0,1-.1.36A.28.28,0,0,1,192.32,37.56Z"/>
    <path class="a" d="M27.82,267.08a.31.31,0,0,1-.13,0,.27.27,0,0,1-.09-.36l3.63-6.29a.25.25,0,0,1,.19-.12.25.25,0,0,1,.22.06l5.09,4.71,3.47-6a.24.24,0,0,1,.18-.13.26.26,0,0,1,.22.07l5.08,4.71,3.47-6a.25.25,0,0,1,.4-.06l5.32,4.93a.26.26,0,0,1,0,.37.25.25,0,0,1-.36,0l-5.08-4.71-3.47,6a.29.29,0,0,1-.18.13.28.28,0,0,1-.22-.07l-5.09-4.71-3.46,6a.26.26,0,0,1-.19.13.25.25,0,0,1-.21-.06L31.52,261l-3.47,6A.28.28,0,0,1,27.82,267.08Z"/>
    <path class="a" d="M160.49,29.05h0l-3.71-.35a.26.26,0,0,1-.19-.12.28.28,0,0,1,0-.22l1.06-3.23-3.38-.32a.27.27,0,0,1-.2-.11.31.31,0,0,1,0-.23L155,21.25l-3.38-.32a.24.24,0,0,1-.19-.11.27.27,0,0,1,0-.23l1.16-3.53a.26.26,0,0,1,.33-.17.27.27,0,0,1,.17.33L152,20.44l3.38.32a.26.26,0,0,1,.19.12.28.28,0,0,1,0,.22l-1.06,3.23,3.38.31a.25.25,0,0,1,.19.12.22.22,0,0,1,0,.22l-1.05,3.23,3.38.32a.28.28,0,0,1,.24.29A.27.27,0,0,1,160.49,29.05Z"/>
    <path class="a" d="M99.52,99.76a.27.27,0,0,1-.15-.05.24.24,0,0,1-.11-.2L99,92.9l-6.38,1.74a.28.28,0,0,1-.22,0,.24.24,0,0,1-.11-.2L92,87.79,85.6,89.53a.27.27,0,0,1-.23,0,.25.25,0,0,1-.1-.2L85,82.36a.27.27,0,0,1,.25-.27.26.26,0,0,1,.27.25L85.77,89l6.38-1.75a.31.31,0,0,1,.23,0,.26.26,0,0,1,.1.2l.29,6.61,6.38-1.74a.25.25,0,0,1,.22,0,.31.31,0,0,1,.11.2l.29,6.61,6.38-1.74a.27.27,0,0,1,.32.19.26.26,0,0,1-.18.32l-6.7,1.82Z"/>
    <path class="a" d="M111.72,86.5a.29.29,0,0,1-.18-.07l-2.65-2.52a.24.24,0,0,1-.08-.21.27.27,0,0,1,.11-.19l2.77-1.85-2.41-2.29a.24.24,0,0,1-.08-.21.27.27,0,0,1,.11-.2l2.77-1.84-2.41-2.29a.26.26,0,0,1,0-.4l3-2a.26.26,0,1,1,.29.43l-2.77,1.84L112.67,77a.26.26,0,0,1,0,.4l-2.77,1.85,2.41,2.28a.26.26,0,0,1,.08.21.23.23,0,0,1-.11.2l-2.77,1.85,2.42,2.29a.27.27,0,0,1,0,.37A.27.27,0,0,1,111.72,86.5Z"/>
    <path class="a" d="M40.82,166.89a.25.25,0,0,1-.25-.2l-.89-4L36,164.46a.28.28,0,0,1-.37-.18l-.89-4L31,162.05a.24.24,0,0,1-.22,0,.26.26,0,0,1-.14-.17l-.9-4-3.69,1.75a.26.26,0,0,1-.35-.12.27.27,0,0,1,.13-.35l4-1.89a.3.3,0,0,1,.23,0,.26.26,0,0,1,.14.18l.89,4,3.69-1.75a.3.3,0,0,1,.23,0,.28.28,0,0,1,.14.18l.89,4,3.69-1.76a.28.28,0,0,1,.22,0,.23.23,0,0,1,.14.18l1,4.3a.26.26,0,0,1-.19.31Z"/>
    <path class="a" d="M171.47,91.41a.26.26,0,0,1-.2-.1l-2.54-3.15a.27.27,0,0,1,0-.37.26.26,0,0,1,.36,0l2.34,2.9,2.31-2.92a.25.25,0,0,1,.21-.1h0a.25.25,0,0,1,.2.09l2.34,2.91,2.31-2.93a.28.28,0,0,1,.21-.1h0a.26.26,0,0,1,.2.1l2.35,2.9,2.31-2.93a.26.26,0,1,1,.41.33l-2.52,3.18a.26.26,0,0,1-.2.1h0a.25.25,0,0,1-.2-.1l-2.35-2.9-2.31,2.93a.27.27,0,0,1-.21.09h0a.25.25,0,0,1-.2-.09L174,88.38l-2.31,2.93a.28.28,0,0,1-.21.1Z"/>
    <path class="a" d="M278.37,267.05h-.06l-2.17-.46a.24.24,0,0,1-.18-.13.24.24,0,0,1,0-.23l.78-1.72-1.85-.39a.23.23,0,0,1-.18-.13.27.27,0,0,1,0-.23l.79-1.72-1.86-.39a.26.26,0,0,1-.18-.13.3.3,0,0,1,0-.23l.92-2a.28.28,0,0,1,.35-.13.27.27,0,0,1,.13.35l-.79,1.72,1.85.38a.26.26,0,0,1,.18.14.26.26,0,0,1,0,.23l-.79,1.72,1.86.38a.31.31,0,0,1,.18.14.3.3,0,0,1,0,.23l-.79,1.72,1.86.39a.25.25,0,0,1,.2.3A.25.25,0,0,1,278.37,267.05Z"/>
    <path class="a" d="M76.84,250.69a.2.2,0,0,1-.15-.05L74.32,249a.29.29,0,0,1-.11-.2.3.3,0,0,1,.09-.21l1.9-1.71-2.1-1.48a.29.29,0,0,1-.11-.19.27.27,0,0,1,.09-.21l1.9-1.72-2.1-1.47a.31.31,0,0,1-.11-.2.27.27,0,0,1,.09-.21L76,239.45a.26.26,0,0,1,.35.39l-1.9,1.71L76.54,243a.27.27,0,0,1,0,.41l-1.9,1.71,2.09,1.48a.21.21,0,0,1,.11.19.24.24,0,0,1-.08.21l-1.9,1.72,2.1,1.48a.27.27,0,0,1,.06.36A.26.26,0,0,1,76.84,250.69Z"/>
    <path class="a" d="M245.72,254.88a.31.31,0,0,1-.13,0,.25.25,0,0,1-.09-.36l.73-1.24a.26.26,0,0,1,.19-.13.28.28,0,0,1,.21.07l.81.77.57-1a.26.26,0,0,1,.19-.13.24.24,0,0,1,.21.07l.81.76.57-1a.25.25,0,0,1,.19-.12.24.24,0,0,1,.21.07l1.05,1a.27.27,0,0,1,0,.37.26.26,0,0,1-.37,0l-.81-.76-.56,1a.25.25,0,0,1-.19.12.29.29,0,0,1-.22-.06l-.81-.77-.56,1a.26.26,0,0,1-.19.13.29.29,0,0,1-.22-.07l-.81-.77-.56,1A.27.27,0,0,1,245.72,254.88Z"/>
    <path class="a" d="M155.6,145.53a.25.25,0,0,1-.25-.24l-.68-7.83a.24.24,0,0,1,.08-.21.28.28,0,0,1,.21-.07l7.47,1-.66-7.5a.3.3,0,0,1,.08-.21.26.26,0,0,1,.22-.07l7.46,1-.66-7.49a.27.27,0,0,1,.08-.22.34.34,0,0,1,.22-.07l7.77,1.08a.26.26,0,0,1-.07.51l-7.45-1,.65,7.5a.27.27,0,0,1-.08.22.22.22,0,0,1-.21.06l-7.46-1,.65,7.5a.24.24,0,0,1-.08.21.23.23,0,0,1-.21.07l-7.46-1,.64,7.51a.25.25,0,0,1-.23.28Z"/>
    <path class="a" d="M39.75,114.92h-.06l-2.45-.59a.26.26,0,1,1,.12-.5l2.14.51,0-2.2a.26.26,0,0,1,.1-.2.29.29,0,0,1,.22-.05l2.14.51,0-2.19a.25.25,0,0,1,.1-.21.28.28,0,0,1,.22,0l2.14.51,0-2.2a.26.26,0,0,1,.26-.26h0a.27.27,0,0,1,.26.27l0,2.52a.23.23,0,0,1-.1.2.25.25,0,0,1-.22.05l-2.14-.51,0,2.2a.26.26,0,0,1-.32.25L40,112.46l0,2.2a.25.25,0,0,1-.1.2A.23.23,0,0,1,39.75,114.92Z"/>
    <path class="a" d="M181.29,189.35h0a.27.27,0,0,1-.23-.29l.21-1.55-1.56.14a.25.25,0,0,1-.21-.08.26.26,0,0,1-.07-.21l.21-1.55-1.56.14a.27.27,0,0,1-.29-.29l.21-1.56-1.56.15a.27.27,0,0,1-.28-.24.25.25,0,0,1,.23-.28l1.89-.17a.27.27,0,0,1,.21.07.29.29,0,0,1,.07.22l-.21,1.55,1.56-.14a.26.26,0,0,1,.21.08.25.25,0,0,1,.08.21L180,187.1l1.56-.14a.26.26,0,0,1,.21.08.28.28,0,0,1,.07.21l-.25,1.88A.26.26,0,0,1,181.29,189.35Z"/>
    <path class="a" d="M4.26,215.94A.28.28,0,0,1,4,215.7l-.33-3.93a.27.27,0,0,1,.08-.22.27.27,0,0,1,.21-.06l3.59.49-.31-3.6a.24.24,0,0,1,.08-.21.25.25,0,0,1,.21-.07l3.59.49-.31-3.6a.24.24,0,0,1,.08-.21.26.26,0,0,1,.21-.07l3.9.55a.25.25,0,0,1,.23.29.27.27,0,0,1-.3.22l-3.58-.5.31,3.6a.27.27,0,0,1-.08.22.22.22,0,0,1-.21.06l-3.58-.49.31,3.6a.3.3,0,0,1-.08.21.26.26,0,0,1-.22.07l-3.58-.49.3,3.6a.25.25,0,0,1-.24.28Z"/>
    <path class="a" d="M72.2,11.42a.26.26,0,0,1-.26-.24L71.77,9a.3.3,0,0,1,.08-.21.26.26,0,0,1,.22-.07L73.93,9l-.14-1.88a.25.25,0,0,1,.08-.21.29.29,0,0,1,.22-.06L76,7.09,75.8,5.21A.34.34,0,0,1,75.88,5a.25.25,0,0,1,.22-.06l2.18.32a.26.26,0,0,1,.22.3.24.24,0,0,1-.29.21L76.35,5.5l.14,1.88a.26.26,0,0,1-.08.21.29.29,0,0,1-.22.06l-1.86-.27.15,1.88a.34.34,0,0,1-.08.21.29.29,0,0,1-.22.06l-1.86-.27.14,1.88a.27.27,0,0,1-.24.28Z"/>
    <path class="a" d="M143.74,223.68a.23.23,0,0,1-.14,0l-2.24-1.47a.27.27,0,0,1-.11-.19.24.24,0,0,1,.08-.21l1.68-1.63-2-1.29a.25.25,0,0,1-.12-.19.3.3,0,0,1,.08-.21l1.69-1.63-2-1.29a.25.25,0,0,1-.12-.19.24.24,0,0,1,.08-.21l1.92-1.86a.28.28,0,0,1,.37,0,.26.26,0,0,1,0,.37l-1.68,1.63,2,1.28a.28.28,0,0,1,.12.19.35.35,0,0,1-.08.22l-1.69,1.62,2,1.29a.25.25,0,0,1,.12.19.27.27,0,0,1-.08.22l-1.69,1.63,2,1.29a.26.26,0,0,1,.07.36A.27.27,0,0,1,143.74,223.68Z"/>
    <path class="a" d="M145.75,268.67h-.06a.25.25,0,0,1-.19-.31l.51-2.1a.28.28,0,0,1,.14-.18.26.26,0,0,1,.23,0l1.64.81.44-1.78a.24.24,0,0,1,.14-.17.24.24,0,0,1,.23,0l1.64.82.44-1.78a.24.24,0,0,1,.14-.18.28.28,0,0,1,.22,0l1.94,1a.26.26,0,1,1-.24.46l-1.64-.81-.43,1.78a.24.24,0,0,1-.14.17.24.24,0,0,1-.23,0l-1.64-.82-.44,1.78a.24.24,0,0,1-.14.18.3.3,0,0,1-.23,0l-1.64-.82-.44,1.78A.26.26,0,0,1,145.75,268.67Z"/>
    <path class="a" d="M153.46,197.59a.27.27,0,0,1-.25-.17l-2-5.86L146,194.79a.27.27,0,0,1-.23,0,.26.26,0,0,1-.15-.16l-2-5.86L138.32,192a.27.27,0,0,1-.23,0,.26.26,0,0,1-.15-.16l-2-5.86-5.28,3.23a.25.25,0,0,1-.35-.09.26.26,0,0,1,.08-.36l5.56-3.4a.25.25,0,0,1,.22,0,.22.22,0,0,1,.16.16l2,5.86,5.28-3.24a.24.24,0,0,1,.22,0,.28.28,0,0,1,.16.16l2,5.86,5.27-3.24a.27.27,0,0,1,.23,0,.31.31,0,0,1,.16.16l2.08,6.17a.26.26,0,0,1-.16.33Z"/>
    <path class="a" d="M60.53,117.44a.25.25,0,0,1-.2-.1L57,113.28a.25.25,0,0,1,0-.22.26.26,0,0,1,.13-.18l4.41-2.21-3.13-3.8a.25.25,0,0,1,0-.22.22.22,0,0,1,.14-.18l4.4-2.21-3.13-3.8a.25.25,0,0,1,0-.22.25.25,0,0,1,.14-.18l4.69-2.34a.25.25,0,0,1,.35.11.26.26,0,0,1-.12.35l-4.4,2.2,3.13,3.81a.23.23,0,0,1,0,.21.24.24,0,0,1-.14.18L59,106.79l3.13,3.8a.25.25,0,0,1,0,.22A.26.26,0,0,1,62,111l-4.4,2.21L60.74,117a.27.27,0,0,1,0,.37A.27.27,0,0,1,60.53,117.44Z"/>
    <path class="a" d="M64.67,82.17a.27.27,0,0,1-.15,0l-6.2-4.26a.28.28,0,0,1-.06-.37.26.26,0,0,1,.36-.06l5.93,4.07,2.65-6.68a.27.27,0,0,1,.17-.16.25.25,0,0,1,.22,0l5.93,4.07,2.66-6.69a.26.26,0,0,1,.17-.15.24.24,0,0,1,.22,0L82.51,76l2.67-6.69a.26.26,0,1,1,.48.19l-2.78,7a.27.27,0,0,1-.17.16.25.25,0,0,1-.22,0l-5.94-4.07-2.66,6.69a.26.26,0,0,1-.17.15.25.25,0,0,1-.22,0l-5.93-4.08L64.91,82a.26.26,0,0,1-.17.15Z"/>
    <path class="a" d="M49.35,232.06a.24.24,0,0,1-.14-.05l-1.49-1a.27.27,0,0,1-.06-.36.26.26,0,0,1,.36-.07l1.21.83.54-1.37a.26.26,0,0,1,.16-.15.27.27,0,0,1,.23,0l1.21.83.54-1.37a.26.26,0,0,1,.16-.15.31.31,0,0,1,.23,0l1.21.83.54-1.36a.26.26,0,0,1,.34-.15.27.27,0,0,1,.15.34l-.66,1.67a.26.26,0,0,1-.17.15.24.24,0,0,1-.22,0l-1.22-.83-.54,1.37a.24.24,0,0,1-.16.15.27.27,0,0,1-.23,0l-1.21-.82-.54,1.36a.25.25,0,0,1-.16.16Z"/>
    <path class="a" d="M275.59,28.94h0a.24.24,0,0,1-.21-.29l.24-1.5-1.52.09a.26.26,0,0,1-.21-.08.29.29,0,0,1-.06-.22l.24-1.5-1.52.1a.29.29,0,0,1-.21-.08.29.29,0,0,1-.06-.22l.24-1.5-1.52.09a.26.26,0,0,1-.27-.24.27.27,0,0,1,.24-.28l1.84-.11a.24.24,0,0,1,.21.08.26.26,0,0,1,.07.22l-.24,1.5,1.51-.1a.27.27,0,0,1,.21.09.25.25,0,0,1,.07.21l-.25,1.5,1.52-.09a.24.24,0,0,1,.21.08.25.25,0,0,1,.06.22l-.29,1.82A.26.26,0,0,1,275.59,28.94Z"/>
    <path class="a" d="M54.73,246.15h-.07L52,245.46a.26.26,0,0,1,.13-.51l2.35.61.06-2.42a.29.29,0,0,1,.11-.21.28.28,0,0,1,.22,0l2.35.6.06-2.42a.27.27,0,0,1,.11-.2.24.24,0,0,1,.22,0l2.35.6L60,239a.26.26,0,1,1,.52,0l-.08,2.75a.26.26,0,0,1-.32.25l-2.35-.61-.07,2.42a.26.26,0,0,1-.11.21.28.28,0,0,1-.22,0l-2.34-.6L55,245.9a.24.24,0,0,1-.11.2A.27.27,0,0,1,54.73,246.15Z"/>
    <path class="a" d="M98.33,262.94a.26.26,0,0,1-.09-.5l5.33-2-3.17-4.75a.25.25,0,0,1,0-.22.3.3,0,0,1,.16-.17l5.34-2-3.18-4.75a.29.29,0,0,1,0-.22.26.26,0,0,1,.15-.17l5.34-2.05L105,241.27a.26.26,0,0,1,.07-.36.25.25,0,0,1,.36.08l3.36,5a.31.31,0,0,1,0,.23.26.26,0,0,1-.15.16l-5.34,2,3.17,4.75a.27.27,0,0,1,0,.23.26.26,0,0,1-.15.16l-5.34,2,3.18,4.75a.31.31,0,0,1,0,.23.28.28,0,0,1-.16.16l-5.64,2.16Z"/>
    <path class="a" d="M237.42,33.15a.22.22,0,0,1-.11,0l-2-.9a.26.26,0,0,1-.13-.35.28.28,0,0,1,.35-.13l1.74.77.36-1.87a.28.28,0,0,1,.14-.18.24.24,0,0,1,.22,0l1.74.77.37-1.87a.26.26,0,0,1,.13-.18.31.31,0,0,1,.23,0l1.74.77.37-1.87a.25.25,0,0,1,.31-.2.25.25,0,0,1,.2.3l-.43,2.19a.23.23,0,0,1-.13.18.27.27,0,0,1-.23,0l-1.74-.77-.37,1.87a.23.23,0,0,1-.13.18.23.23,0,0,1-.23,0L238,31.07l-.36,1.87a.26.26,0,0,1-.14.18A.27.27,0,0,1,237.42,33.15Z"/>
    <path class="a" d="M83.27,108.13a.28.28,0,0,1-.16,0,.26.26,0,0,1,0-.37l1.28-1.61a.25.25,0,0,1,.2-.09h0a.27.27,0,0,1,.21.09l1.08,1.35,1.07-1.35a.28.28,0,0,1,.2-.1h0a.25.25,0,0,1,.21.1l1.08,1.34,1.07-1.35a.26.26,0,0,1,.2-.1h0a.28.28,0,0,1,.21.1l1.28,1.6a.25.25,0,0,1,0,.36.25.25,0,0,1-.37,0l-1.08-1.34L88.59,108a.26.26,0,0,1-.2.1h0a.28.28,0,0,1-.21-.1l-1.07-1.34L86,108a.26.26,0,0,1-.2.1h0a.26.26,0,0,1-.2-.1l-1.08-1.35L83.47,108A.25.25,0,0,1,83.27,108.13Z"/>
    <path class="a" d="M156.41,256.9l-.12,0a.26.26,0,0,1-.14-.17l-1.87-8-7.38,3.58a.24.24,0,0,1-.22,0,.25.25,0,0,1-.14-.18l-1.87-8-7.37,3.59a.24.24,0,0,1-.23,0,.24.24,0,0,1-.14-.17l-1.93-8.3a.28.28,0,0,1,.2-.32.26.26,0,0,1,.31.2l1.86,8,7.37-3.59a.28.28,0,0,1,.22,0,.27.27,0,0,1,.15.18l1.86,8,7.37-3.59a.3.3,0,0,1,.23,0,.28.28,0,0,1,.14.18l1.87,8,7.39-3.59a.28.28,0,0,1,.35.12.27.27,0,0,1-.13.35l-7.67,3.73Z"/>
    <path class="a" d="M123.86,154.23a.27.27,0,0,1-.12,0,.26.26,0,0,1-.13-.19l-1-5.44-5.09,2.13a.23.23,0,0,1-.23,0,.23.23,0,0,1-.13-.18l-1-5.44-5.09,2.14a.25.25,0,0,1-.22,0,.23.23,0,0,1-.13-.18l-1-5.76a.26.26,0,1,1,.51-.09l1,5.44,5.09-2.14a.3.3,0,0,1,.23,0,.26.26,0,0,1,.13.19l1,5.44,5.09-2.14a.24.24,0,0,1,.22,0,.3.3,0,0,1,.14.19l1,5.44,5.1-2.13a.26.26,0,0,1,.35.14.27.27,0,0,1-.14.34l-5.4,2.26Z"/>
    <path class="a" d="M80.74,44.82a.26.26,0,0,1-.06-.51l2-.48L81.77,42a.31.31,0,0,1,0-.23.26.26,0,0,1,.18-.14l2-.48L83,39.3a.26.26,0,0,1,.17-.37l2-.48-.91-1.85a.26.26,0,0,1,.12-.35.27.27,0,0,1,.35.12l1,2.14a.31.31,0,0,1,0,.23.26.26,0,0,1-.17.14l-2,.48.91,1.85a.24.24,0,0,1,0,.22.28.28,0,0,1-.17.15l-2,.47.91,1.85a.22.22,0,0,1,0,.22.23.23,0,0,1-.17.15l-2.32.55Z"/>
    <path class="a" d="M211.06,252.73a.28.28,0,0,1-.2-.08.29.29,0,0,1-.06-.22l1-5.86-5.94.29a.24.24,0,0,1-.21-.09.24.24,0,0,1-.06-.21l1-5.86-5.94.29a.24.24,0,0,1-.21-.08.25.25,0,0,1-.06-.22l1.09-6.18a.25.25,0,0,1,.3-.21.26.26,0,0,1,.21.3l-1,5.86,5.94-.3a.25.25,0,0,1,.21.09.29.29,0,0,1,.06.22l-1,5.85,5.94-.29a.22.22,0,0,1,.2.09.25.25,0,0,1,.07.21l-1,5.87,5.95-.29a.24.24,0,0,1,.27.25.26.26,0,0,1-.25.27l-6.27.3Z"/>
    <path class="a" d="M290.06,64l-.1,0-6.92-3a.23.23,0,0,1-.15-.17.25.25,0,0,1,0-.22l4.27-5.83-6.62-2.87a.23.23,0,0,1-.15-.17.24.24,0,0,1,0-.22l4.27-5.82-6.62-2.88a.26.26,0,0,1-.15-.17.29.29,0,0,1,0-.22l4.47-6.08a.27.27,0,0,1,.37-.05.26.26,0,0,1,0,.36l-4.27,5.82,6.62,2.87a.26.26,0,0,1,.15.17.28.28,0,0,1,0,.22l-4.28,5.82,6.63,2.88a.24.24,0,0,1,.14.17.25.25,0,0,1,0,.22l-4.27,5.83,6.63,2.88a.26.26,0,0,1,.13.34A.26.26,0,0,1,290.06,64Z"/>
    <path class="a" d="M39.86,244.92h-.09a.27.27,0,0,1-.16-.17l-1.17-3.69-3.34,2a.25.25,0,0,1-.22,0,.28.28,0,0,1-.16-.16l-1.17-3.69-3.33,2a.26.26,0,0,1-.23,0,.26.26,0,0,1-.15-.17l-1.27-4a.27.27,0,0,1,.17-.33.26.26,0,0,1,.33.17l1.17,3.68,3.33-2a.26.26,0,0,1,.38.14l1.17,3.69,3.34-2a.24.24,0,0,1,.22,0,.3.3,0,0,1,.16.17L40,244.27l3.34-2a.25.25,0,0,1,.35.09.25.25,0,0,1-.09.36L40,244.89A.28.28,0,0,1,39.86,244.92Z"/>
    <path class="a" d="M100.17,231.76a.2.2,0,0,1-.11,0,.26.26,0,0,1-.12-.35l.6-1.2-1.31-.32a.28.28,0,0,1-.18-.14.27.27,0,0,1,0-.23l.59-1.2-1.3-.32a.28.28,0,0,1-.18-.14.31.31,0,0,1,0-.23l.6-1.21-1.31-.31a.27.27,0,0,1-.19-.32.26.26,0,0,1,.32-.19l1.62.39a.3.3,0,0,1,.18.15.24.24,0,0,1,0,.22l-.59,1.21,1.3.32a.26.26,0,0,1,.18.14.3.3,0,0,1,0,.23l-.6,1.2,1.31.32a.26.26,0,0,1,.17.14.3.3,0,0,1,0,.23l-.75,1.49A.25.25,0,0,1,100.17,231.76Z"/>
    <path class="a" d="M106.33,290.23a.26.26,0,0,1-.21-.11l-1.19-1.64L103.59,290a.21.21,0,0,1-.21.08.23.23,0,0,1-.19-.1l-1.2-1.65-1.34,1.53a.26.26,0,0,1-.41,0l-1.19-1.64-1.35,1.53a.25.25,0,0,1-.36,0,.25.25,0,0,1,0-.36l1.56-1.78a.27.27,0,0,1,.21-.09.31.31,0,0,1,.2.11l1.19,1.64,1.34-1.53a.25.25,0,0,1,.21-.08.26.26,0,0,1,.2.1l1.19,1.65,1.34-1.53a.27.27,0,0,1,.21-.09.26.26,0,0,1,.2.1l1.39,1.91a.28.28,0,0,1-.06.37A.3.3,0,0,1,106.33,290.23Z"/>
    <path class="a" d="M68.51,137.7a.25.25,0,0,1-.23-.16L65.76,132a.24.24,0,0,1,0-.22.25.25,0,0,1,.18-.14l5.61-1.17-2.38-5.21a.31.31,0,0,1,0-.23.26.26,0,0,1,.18-.13L75,123.76l-2.38-5.21a.24.24,0,0,1,0-.22.26.26,0,0,1,.17-.14L78.7,117a.25.25,0,0,1,.31.2.26.26,0,0,1-.21.31l-5.6,1.16,2.38,5.2a.28.28,0,0,1-.18.37l-5.61,1.16,2.38,5.21a.24.24,0,0,1,0,.22.22.22,0,0,1-.18.14l-5.61,1.17,2.38,5.22a.26.26,0,0,1-.13.34A.2.2,0,0,1,68.51,137.7Z"/>
    <path class="a" d="M123.33,47.44a.26.26,0,0,1-.24-.16.27.27,0,0,1,.14-.34l4.83-2-3-4.26a.27.27,0,0,1,0-.23.29.29,0,0,1,.15-.16l4.83-2-3-4.27a.24.24,0,0,1,0-.22.23.23,0,0,1,.15-.17l4.82-2-3-4.27A.26.26,0,0,1,129,27a.25.25,0,0,1,.36.06l3.2,4.54a.28.28,0,0,1,0,.22.3.3,0,0,1-.16.17l-4.82,2,3,4.27a.24.24,0,0,1,0,.22.28.28,0,0,1-.15.17l-4.83,2,3,4.27a.24.24,0,0,1,0,.22.26.26,0,0,1-.15.17l-5.13,2.11Z"/>
    <path class="a" d="M164.28,178.05a.25.25,0,0,1-.19-.09.24.24,0,0,1-.06-.21l.41-2.6-2.62.17a.27.27,0,0,1-.21-.09.26.26,0,0,1-.07-.22l.42-2.59-2.62.17a.27.27,0,0,1-.21-.09.28.28,0,0,1-.07-.21l.48-2.92a.26.26,0,1,1,.51.08l-.42,2.6,2.62-.17a.24.24,0,0,1,.21.08.26.26,0,0,1,.07.22l-.42,2.59,2.62-.16a.24.24,0,0,1,.21.08.26.26,0,0,1,.07.22l-.42,2.6,2.63-.17a.24.24,0,0,1,.27.24.26.26,0,0,1-.24.28l-2.95.19Z"/>
    <path class="a" d="M150.4,127.07a.25.25,0,0,1-.2-.09l-1.76-2a.25.25,0,0,1,0-.36.26.26,0,0,1,.37,0l1.55,1.76,1.37-1.9a.27.27,0,0,1,.2-.11.23.23,0,0,1,.21.09l1.55,1.76,1.37-1.9a.24.24,0,0,1,.2-.11.27.27,0,0,1,.21.09l1.55,1.76,1.38-1.9a.26.26,0,0,1,.36-.06.25.25,0,0,1,.06.36l-1.57,2.17a.29.29,0,0,1-.2.11.22.22,0,0,1-.2-.09l-1.56-1.76-1.37,1.9a.27.27,0,0,1-.2.11.24.24,0,0,1-.21-.09L152,125.06l-1.37,1.9a.24.24,0,0,1-.2.11Z"/>
    <path class="a" d="M268.08,274.86H268a.26.26,0,0,1-.2-.31l.33-1.55-1.59,0a.26.26,0,0,1-.21-.09.25.25,0,0,1-.05-.22l.33-1.56-1.59,0a.26.26,0,0,1-.21-.1.25.25,0,0,1,0-.22l.32-1.55-1.59,0h0a.26.26,0,0,1-.26-.26.26.26,0,0,1,.25-.26l1.92,0a.2.2,0,0,1,.21.09.26.26,0,0,1,.05.22l-.33,1.56,1.59,0a.29.29,0,0,1,.21.09.25.25,0,0,1,0,.22l-.33,1.56,1.59,0a.38.38,0,0,1,.21.1.25.25,0,0,1,.05.22l-.39,1.87A.28.28,0,0,1,268.08,274.86Z"/>
    <path class="a" d="M251.7,144.05a.28.28,0,0,1-.23-.15l-1.42-2.82-2.44,2a.26.26,0,0,1-.4-.09l-1.42-2.82-2.44,2a.25.25,0,0,1-.22,0,.24.24,0,0,1-.18-.13l-1.43-2.83-2.44,2a.26.26,0,0,1-.33-.4l2.69-2.23a.25.25,0,0,1,.22-.05.28.28,0,0,1,.18.14l1.43,2.82,2.44-2a.25.25,0,0,1,.22-.05.24.24,0,0,1,.17.14l1.43,2.82,2.44-2a.25.25,0,0,1,.22-.05.23.23,0,0,1,.17.13l1.58,3.12a.27.27,0,0,1-.12.35Z"/>
    <path class="a" d="M239.06,169.44a.28.28,0,0,1-.12,0l-4.66-2.5a.27.27,0,0,1-.13-.18.29.29,0,0,1,.06-.22l3.25-3.74-4.36-2.35a.28.28,0,0,1-.14-.18A.29.29,0,0,1,233,160l3.26-3.74-4.37-2.34a.26.26,0,0,1-.13-.18.25.25,0,0,1,.06-.22l3.47-4a.26.26,0,1,1,.39.34l-3.25,3.73,4.36,2.35a.28.28,0,0,1,.14.18.29.29,0,0,1-.06.22l-3.26,3.74,4.37,2.34a.26.26,0,0,1,.13.18.25.25,0,0,1-.06.22l-3.25,3.75,4.37,2.35a.26.26,0,0,1,.1.35A.24.24,0,0,1,239.06,169.44Z"/>
    <path class="a" d="M266.11,103.21h0a.27.27,0,0,1-.24-.28l.64-7.69a.29.29,0,0,1,.11-.19.27.27,0,0,1,.23,0l7,2.21.61-7.35a.27.27,0,0,1,.11-.2.31.31,0,0,1,.23,0l7,2.22.61-7.36a.23.23,0,0,1,.11-.19.25.25,0,0,1,.22,0l7.35,2.32a.27.27,0,0,1,.17.33.27.27,0,0,1-.33.17l-7-2.23-.6,7.36a.25.25,0,0,1-.12.19.22.22,0,0,1-.22,0l-7-2.22-.6,7.36a.26.26,0,0,1-.34.23l-7-2.22-.61,7.36A.25.25,0,0,1,266.11,103.21Z"/>
    <path class="a" d="M250.61,94a.26.26,0,0,1-.26-.25l-.09-1.85a.27.27,0,0,1,.09-.21.25.25,0,0,1,.22-.06l1.5.26L252,90.38a.24.24,0,0,1,.09-.21.27.27,0,0,1,.21-.06l1.51.26-.08-1.52a.27.27,0,0,1,.09-.21.29.29,0,0,1,.22-.06l1.82.33a.26.26,0,1,1-.09.51l-1.5-.27.07,1.52a.24.24,0,0,1-.09.21.21.21,0,0,1-.21.06l-1.51-.26.08,1.52a.27.27,0,0,1-.09.21.25.25,0,0,1-.22.06l-1.5-.26.07,1.52a.25.25,0,0,1-.25.27Z"/>
    <path class="a" d="M180.47,242.17a.25.25,0,0,1-.14,0,.26.26,0,0,1-.08-.36l1.36-2.18a.28.28,0,0,1,.19-.12.24.24,0,0,1,.21.08l1.6,1.57,1.19-1.9a.25.25,0,0,1,.19-.12.28.28,0,0,1,.21.07l1.59,1.58,1.19-1.9a.22.22,0,0,1,.19-.12.24.24,0,0,1,.21.07l1.83,1.81a.26.26,0,1,1-.37.37l-1.59-1.58-1.19,1.9a.26.26,0,0,1-.4,0l-1.59-1.58-1.19,1.91a.28.28,0,0,1-.19.12.24.24,0,0,1-.21-.08l-1.6-1.58-1.19,1.91A.25.25,0,0,1,180.47,242.17Z"/>
    <path class="a" d="M21.14,70a.27.27,0,0,1-.24-.17L18.64,64a.25.25,0,0,1,0-.22.26.26,0,0,1,.19-.13l5.85-.87-2.14-5.51a.26.26,0,0,1,0-.23.29.29,0,0,1,.19-.13l5.85-.86-2.14-5.51a.26.26,0,0,1,0-.23.29.29,0,0,1,.19-.13l6.17-.9a.26.26,0,0,1,.3.22.26.26,0,0,1-.22.29l-5.85.86,2.14,5.52a.24.24,0,0,1,0,.22.26.26,0,0,1-.19.13l-5.85.86,2.14,5.52a.25.25,0,0,1,0,.22.26.26,0,0,1-.19.13l-5.85.87,2.13,5.52a.25.25,0,0,1-.14.34Z"/>
    <path class="a" d="M14.27,181.08a.27.27,0,0,1-.24-.17l-1.77-4.36a.28.28,0,0,1,0-.22.26.26,0,0,1,.19-.13l4.32-.72-1.65-4a.26.26,0,0,1,0-.23.26.26,0,0,1,.19-.13l4.32-.71L18,166.3a.25.25,0,0,1,0-.22.24.24,0,0,1,.18-.13l4.64-.76a.25.25,0,0,1,.3.21.26.26,0,0,1-.21.3l-4.32.71,1.65,4.05a.26.26,0,0,1,0,.23.26.26,0,0,1-.19.13l-4.32.71,1.66,4.06a.25.25,0,0,1,0,.22.24.24,0,0,1-.18.13l-4.32.72,1.65,4.06a.27.27,0,0,1-.15.34Z"/>
    <path class="a" d="M135.11,176.68h0a.26.26,0,0,1-.24-.27l.23-3.54-3.5.55a.25.25,0,0,1-.22-.06.24.24,0,0,1-.08-.21l.23-3.54-3.51.55a.24.24,0,0,1-.21-.06.27.27,0,0,1-.09-.21l.23-3.55-3.51.56a.26.26,0,0,1-.08-.52l3.83-.6a.26.26,0,0,1,.31.27l-.24,3.55,3.51-.56a.26.26,0,0,1,.22.07.24.24,0,0,1,.08.21l-.23,3.54,3.5-.56a.26.26,0,0,1,.22.07.23.23,0,0,1,.08.2l-.25,3.87A.26.26,0,0,1,135.11,176.68Z"/>
    <path class="a" d="M290,195.12h0a.26.26,0,0,1-.24-.28l.21-4.07-4,.7a.29.29,0,0,1-.22-.06.27.27,0,0,1-.09-.21l.21-4.07-4,.7a.26.26,0,0,1-.22-.07.25.25,0,0,1-.09-.2l.21-4.08-4,.69a.26.26,0,0,1-.3-.21.27.27,0,0,1,.21-.3l4.35-.75a.25.25,0,0,1,.22.06.24.24,0,0,1,.08.21l-.2,4.08,4-.7a.25.25,0,0,1,.22.06.27.27,0,0,1,.09.21l-.21,4.07,4-.7a.29.29,0,0,1,.22.06.24.24,0,0,1,.08.21l-.22,4.4A.27.27,0,0,1,290,195.12Z"/>
    <path class="a" d="M181.88,139.29a.27.27,0,0,1-.18-.08L180,137.59a.25.25,0,0,1,0-.36.26.26,0,0,1,.37,0l1.44,1.39,1-1.71a.25.25,0,0,1,.4-.06l1.45,1.4,1-1.72a.25.25,0,0,1,.18-.12.26.26,0,0,1,.22.07l1.45,1.39,1-1.71a.25.25,0,0,1,.36-.09.25.25,0,0,1,.08.35l-1.21,2a.29.29,0,0,1-.19.13.25.25,0,0,1-.21-.08L186,137.07l-1,1.72a.28.28,0,0,1-.19.12.27.27,0,0,1-.21-.07l-1.44-1.39-1,1.71a.26.26,0,0,1-.19.13Z"/>
    <path class="a" d="M212.13,217.93h0a.26.26,0,0,1-.21-.31l.73-4a.28.28,0,0,1,.14-.18.24.24,0,0,1,.22,0l3.45,1.47.67-3.68a.26.26,0,0,1,.13-.19.26.26,0,0,1,.23,0l3.44,1.47.67-3.68a.26.26,0,0,1,.13-.18.27.27,0,0,1,.23,0l3.74,1.6a.26.26,0,0,1,.13.34.25.25,0,0,1-.34.14L222,209.23l-.67,3.68a.24.24,0,0,1-.13.18.26.26,0,0,1-.23,0l-3.44-1.47-.67,3.68a.23.23,0,0,1-.13.18.24.24,0,0,1-.23,0L213.07,214l-.68,3.69A.26.26,0,0,1,212.13,217.93Z"/>
    <path class="a" d="M141,117.75a.26.26,0,0,1-.25-.21.26.26,0,0,1,.21-.31l1.38-.24-.55-1.3a.26.26,0,0,1,0-.23.26.26,0,0,1,.19-.13l1.38-.25-.55-1.3a.31.31,0,0,1,0-.23.33.33,0,0,1,.19-.13l1.39-.25-.56-1.3a.27.27,0,0,1,.14-.34.25.25,0,0,1,.34.14l.68,1.6a.24.24,0,0,1,0,.22.28.28,0,0,1-.18.14l-1.39.25.55,1.3a.24.24,0,0,1,0,.22.24.24,0,0,1-.18.13l-1.39.25.55,1.3a.26.26,0,0,1,0,.23.24.24,0,0,1-.18.13l-1.71.31Z"/>
    <path class="a" d="M83.7,291.51a.24.24,0,0,1-.23-.14l-1-2.08a.28.28,0,0,1,0-.22.27.27,0,0,1,.18-.15l1.93-.45-.87-1.78a.24.24,0,0,1,0-.23.26.26,0,0,1,.17-.14l1.93-.45-.87-1.78a.3.3,0,0,1,0-.23.28.28,0,0,1,.18-.14l2.25-.53a.26.26,0,0,1,.11.51l-1.92.45.86,1.78a.27.27,0,0,1,0,.23.28.28,0,0,1-.18.14l-1.93.45.87,1.78a.26.26,0,0,1-.17.37l-1.94.46.87,1.78a.26.26,0,0,1-.12.35A.2.2,0,0,1,83.7,291.51Z"/>
    <path class="a" d="M281.48,291.64a.33.33,0,0,1-.14,0,.27.27,0,0,1-.09-.36l1.55-2.53a.28.28,0,0,1,.19-.12.27.27,0,0,1,.21.07l1.89,1.84,1.37-2.25a.25.25,0,0,1,.19-.12.26.26,0,0,1,.21.07l1.89,1.84,1.37-2.25a.25.25,0,0,1,.19-.12.21.21,0,0,1,.21.07l2.12,2.06a.26.26,0,0,1,0,.37.25.25,0,0,1-.36,0l-1.89-1.83L289,290.59a.28.28,0,0,1-.19.12.28.28,0,0,1-.21-.07l-1.89-1.84-1.37,2.25a.25.25,0,0,1-.19.12.28.28,0,0,1-.21-.07l-1.89-1.84-1.37,2.25A.27.27,0,0,1,281.48,291.64Z"/>
    <path class="a" d="M237.9,19.55a.25.25,0,0,1-.21-.1l-.88-1.18a.27.27,0,0,1,0-.23.26.26,0,0,1,.14-.17l1.05-.46-.68-.92a.24.24,0,0,1,0-.23.26.26,0,0,1,.14-.17l1.05-.46-.68-.92a.28.28,0,0,1-.05-.23.28.28,0,0,1,.15-.17l1.35-.59a.26.26,0,0,1,.34.13.25.25,0,0,1-.13.34l-1,.47.68.92a.25.25,0,0,1,.05.22.26.26,0,0,1-.15.17l-1.05.47.69.92a.28.28,0,0,1,0,.22.23.23,0,0,1-.15.17l-1.05.47.69.92a.26.26,0,0,1-.06.36A.21.21,0,0,1,237.9,19.55Z"/>
    <path class="a" d="M197.05,261.22h0a.26.26,0,0,1-.23-.29l.19-1.38a.26.26,0,0,1,.13-.18.24.24,0,0,1,.22,0l1,.37.14-1a.25.25,0,0,1,.12-.19.26.26,0,0,1,.23,0l1,.37.14-1.05a.26.26,0,0,1,.13-.19.24.24,0,0,1,.22,0l1.3.49a.26.26,0,0,1,.15.33.25.25,0,0,1-.33.15l-1-.37-.14,1a.25.25,0,0,1-.12.19.26.26,0,0,1-.23,0l-1-.37-.14,1.05a.26.26,0,0,1-.13.19.24.24,0,0,1-.22,0l-1-.37-.14,1.05A.27.27,0,0,1,197.05,261.22Z"/>
    <path class="a" d="M250.85,289.29h0l-3.25-.52a.26.26,0,0,1,.08-.52l2.93.47-.19-3a.24.24,0,0,1,.08-.21.29.29,0,0,1,.22-.07l2.93.47-.2-3a.26.26,0,0,1,.08-.21.26.26,0,0,1,.22-.07l2.93.47-.19-3a.27.27,0,0,1,.24-.28.26.26,0,0,1,.28.25l.22,3.29a.3.3,0,0,1-.09.21.28.28,0,0,1-.22.06l-2.93-.46.2,3a.27.27,0,0,1-.09.21.22.22,0,0,1-.21.06l-2.93-.46.19,3a.24.24,0,0,1-.08.21A.29.29,0,0,1,250.85,289.29Z"/>
    <path class="a" d="M1.16,157.67a.23.23,0,0,1-.2-.1.25.25,0,0,1,0-.36L2.54,156,1,154.74a.28.28,0,0,1-.1-.21.26.26,0,0,1,.1-.2l1.55-1.24L1,151.85a.27.27,0,0,1,0-.4l1.55-1.25L1,149a.26.26,0,0,1,0-.37.26.26,0,0,1,.36,0L3.11,150a.26.26,0,0,1,.1.2.28.28,0,0,1-.1.21l-1.55,1.24,1.56,1.23a.28.28,0,0,1,.1.21.26.26,0,0,1-.1.2l-1.55,1.24,1.55,1.23a.25.25,0,0,1,.1.21.23.23,0,0,1-.1.2l-1.8,1.44A.25.25,0,0,1,1.16,157.67Z"/>
    <path class="a" d="M125.2,252a.18.18,0,0,1-.1,0,.22.22,0,0,1-.15-.16l-.41-1.28-1.16.68a.26.26,0,0,1-.38-.14l-.41-1.28-1.16.68a.24.24,0,0,1-.22,0,.28.28,0,0,1-.16-.16l-.51-1.59a.27.27,0,0,1,.17-.33.26.26,0,0,1,.33.17l.41,1.28,1.16-.69a.28.28,0,0,1,.22,0,.3.3,0,0,1,.16.17l.41,1.28,1.15-.69a.3.3,0,0,1,.23,0,.22.22,0,0,1,.15.16l.42,1.28,1.15-.68a.25.25,0,0,1,.36.09.27.27,0,0,1-.09.36l-1.44.84A.22.22,0,0,1,125.2,252Z"/>
    <path class="a" d="M12.26,282.39a.26.26,0,0,1-.22-.12.26.26,0,0,1,.07-.36l4-2.74-3.57-3.31a.26.26,0,0,1,0-.4l4-2.75L13,269.4a.27.27,0,0,1-.09-.21.29.29,0,0,1,.11-.19l4-2.76-3.57-3.31a.25.25,0,0,1,0-.36.26.26,0,0,1,.37,0l3.81,3.53a.29.29,0,0,1,.09.21.28.28,0,0,1-.12.2l-4,2.75,3.57,3.31a.24.24,0,0,1,.08.21.21.21,0,0,1-.11.19l-4,2.75L16.72,279a.26.26,0,0,1,0,.4l-4.28,2.93A.3.3,0,0,1,12.26,282.39Z"/>
    <path class="a" d="M204.59,222.88a.23.23,0,0,1-.17-.07l-1.07-.91a.27.27,0,0,1-.09-.21.28.28,0,0,1,.1-.2l.87-.65-.82-.7a.23.23,0,0,1-.1-.2.26.26,0,0,1,.11-.2l.86-.65-.82-.7a.24.24,0,0,1-.09-.21.26.26,0,0,1,.1-.2l1.13-.84a.26.26,0,0,1,.36.05.27.27,0,0,1-.05.37l-.86.64.82.7a.27.27,0,0,1,.09.21.26.26,0,0,1-.1.2L204,220l.83.7a.27.27,0,0,1,.09.2.29.29,0,0,1-.11.21l-.86.64.82.71a.25.25,0,0,1,0,.36A.26.26,0,0,1,204.59,222.88Z"/>
    <path class="a" d="M41.35,180.58a.18.18,0,0,1-.1,0,.26.26,0,0,1-.15-.17l-.36-1.26-1.15.64a.3.3,0,0,1-.23,0,.26.26,0,0,1-.15-.17l-.36-1.26L37.7,179a.26.26,0,0,1-.23,0,.29.29,0,0,1-.15-.16l-.45-1.58a.26.26,0,1,1,.5-.14l.36,1.26,1.15-.64a.31.31,0,0,1,.23,0,.26.26,0,0,1,.15.17l.36,1.26,1.15-.63a.27.27,0,0,1,.38.15l.36,1.27,1.15-.64a.27.27,0,0,1,.36.11.26.26,0,0,1-.11.35l-1.43.79A.28.28,0,0,1,41.35,180.58Z"/>
    <path class="a" d="M177.44,114.77a.25.25,0,0,1-.25-.21l-.91-4.55a.25.25,0,0,1,.05-.22.31.31,0,0,1,.21-.09l4.32.1-.85-4.23a.25.25,0,0,1,.05-.22.33.33,0,0,1,.21-.09l4.31.11-.85-4.23a.25.25,0,0,1,.06-.22.33.33,0,0,1,.2-.09l4.64.12a.25.25,0,0,1,.25.27.25.25,0,0,1-.26.25l-4.31-.11.85,4.23a.31.31,0,0,1-.06.22.27.27,0,0,1-.21.09l-4.31-.11.85,4.23a.26.26,0,0,1-.26.31l-4.32-.1.85,4.23a.26.26,0,0,1-.2.31Z"/>
    <path class="a" d="M232.49,138.77l-.09,0a.25.25,0,0,1-.15-.33l1.12-3-3.21-.42a.28.28,0,0,1-.19-.12.26.26,0,0,1,0-.23l1.12-3-3.2-.42a.25.25,0,0,1-.19-.12.26.26,0,0,1,0-.23l1.11-3-3.2-.42a.26.26,0,1,1,.07-.52l3.52.46a.26.26,0,0,1,.19.13.24.24,0,0,1,0,.22l-1.11,3,3.2.42a.25.25,0,0,1,.21.34l-1.12,3,3.21.41a.26.26,0,0,1,.19.13.28.28,0,0,1,0,.22l-1.24,3.34A.25.25,0,0,1,232.49,138.77Z"/>
    <path class="a" d="M140.6,40.1a.28.28,0,0,1-.13,0,.26.26,0,0,1-.1-.36l1.37-2.42a.24.24,0,0,1,.18-.12.25.25,0,0,1,.22.06L144,38.87l1.21-2.13a.24.24,0,0,1,.18-.13.26.26,0,0,1,.22.07l1.81,1.64,1.21-2.13a.23.23,0,0,1,.18-.13.25.25,0,0,1,.22.06L151,38a.26.26,0,0,1,0,.37.27.27,0,0,1-.37,0l-1.81-1.64-1.2,2.13a.26.26,0,0,1-.19.13.29.29,0,0,1-.22-.06l-1.81-1.65-1.2,2.13a.26.26,0,0,1-.19.13.23.23,0,0,1-.21-.06L142,37.83,140.82,40A.25.25,0,0,1,140.6,40.1Z"/>
    <path class="a" d="M267.52,187.54a.25.25,0,0,1-.25-.19.26.26,0,0,1,.19-.32l1.3-.32-.61-1.2a.28.28,0,0,1,0-.22.25.25,0,0,1,.17-.15l1.3-.32-.6-1.2a.24.24,0,0,1,0-.22.27.27,0,0,1,.18-.15l1.3-.33-.61-1.19a.26.26,0,0,1,.12-.35.25.25,0,0,1,.35.11l.75,1.49a.24.24,0,0,1,0,.23.24.24,0,0,1-.17.14l-1.3.33.6,1.19a.25.25,0,0,1-.16.37l-1.3.33.6,1.19a.27.27,0,0,1,0,.23.25.25,0,0,1-.18.14l-1.62.41Z"/>
    <path class="a" d="M143.65,101.88a.27.27,0,0,1-.16-.06l-5.85-4.62a.23.23,0,0,1-.1-.2.25.25,0,0,1,.09-.2l5.54-4.49-5.59-4.41a.23.23,0,0,1-.1-.2.27.27,0,0,1,.09-.21L143.11,83l-5.59-4.4a.25.25,0,0,1-.1-.21.27.27,0,0,1,.09-.2l5.8-4.68a.26.26,0,0,1,.36,0,.26.26,0,0,1,0,.37L138.1,78.4l5.59,4.41a.26.26,0,0,1,.1.2.23.23,0,0,1-.1.2l-5.53,4.48,5.59,4.41a.26.26,0,0,1,.1.2.25.25,0,0,1-.1.21L138.22,97l5.59,4.41a.27.27,0,0,1,.05.37A.3.3,0,0,1,143.65,101.88Z"/>
    <path class="a" d="M161,190.62a.26.26,0,0,1,0-.52l1.35,0-.32-1.31a.26.26,0,0,1,.25-.32h1.35l-.32-1.31a.25.25,0,0,1,0-.22.23.23,0,0,1,.2-.1l1.35,0-.32-1.31a.26.26,0,0,1,.2-.31.25.25,0,0,1,.31.19l.39,1.62a.25.25,0,0,1,0,.22.27.27,0,0,1-.2.11h-1.35l.32,1.31a.25.25,0,0,1,0,.22.26.26,0,0,1-.2.1l-1.35,0,.32,1.31a.26.26,0,0,1-.25.32l-1.67,0Z"/>
    <path class="a" d="M266,156.94a.27.27,0,0,1-.19-.08l-2.45-2.77a.25.25,0,0,1,0-.36.26.26,0,0,1,.37,0l2.23,2.52,2-2.74a.24.24,0,0,1,.2-.11.27.27,0,0,1,.21.09l2.23,2.51,2-2.73a.24.24,0,0,1,.2-.11.26.26,0,0,1,.21.08l2.24,2.52,2-2.74a.27.27,0,0,1,.36-.06.26.26,0,0,1,.06.37l-2.15,3a.24.24,0,0,1-.2.11.25.25,0,0,1-.21-.09l-2.23-2.52-2,2.74a.26.26,0,0,1-.41,0l-2.24-2.51-2,2.73a.23.23,0,0,1-.19.11Z"/>
    <path class="a" d="M87.16,125.2a.2.2,0,0,1-.11,0,.24.24,0,0,1-.12-.34L88,122.61a.26.26,0,0,1,.17-.14.25.25,0,0,1,.22,0l1.67,1.34.94-1.93a.26.26,0,0,1,.17-.14.28.28,0,0,1,.22,0l1.67,1.34.93-1.92a.28.28,0,0,1,.18-.14.25.25,0,0,1,.22,0l1.92,1.54a.27.27,0,0,1,0,.37.26.26,0,0,1-.36,0l-1.67-1.34-.93,1.92a.28.28,0,0,1-.18.14.25.25,0,0,1-.22,0l-1.67-1.34-.93,1.93a.26.26,0,0,1-.4.09l-1.67-1.34-.93,1.92A.26.26,0,0,1,87.16,125.2Z"/>
    <path class="a" d="M14.76,136.86a.29.29,0,0,1-.22-.12.26.26,0,0,1,.08-.36l5.46-3.53-4.66-4.53a.29.29,0,0,1-.07-.22.28.28,0,0,1,.12-.19l5.45-3.53-4.65-4.54a.26.26,0,0,1-.08-.21.25.25,0,0,1,.12-.19l5.46-3.54-4.65-4.54a.26.26,0,1,1,.36-.38l4.89,4.78a.26.26,0,0,1,.07.21.24.24,0,0,1-.11.19l-5.46,3.54,4.65,4.54a.26.26,0,0,1,.08.21.25.25,0,0,1-.12.19L16,128.17l4.65,4.54a.24.24,0,0,1,.08.21.25.25,0,0,1-.12.19l-5.73,3.71A.33.33,0,0,1,14.76,136.86Z"/>
    <path class="a" d="M7.62,56.22a.29.29,0,0,1-.2-.09.31.31,0,0,1-.06-.22L8,52.63l-3.34.08a.27.27,0,0,1-.21-.09.3.3,0,0,1-.06-.22l.66-3.28-3.34.08a.24.24,0,0,1-.2-.09.23.23,0,0,1-.06-.22L2.2,45.3a.25.25,0,0,1,.3-.21.28.28,0,0,1,.21.31L2,48.67l3.35-.08a.27.27,0,0,1,.2.09.29.29,0,0,1,.06.22L5,52.18l3.34-.08a.23.23,0,0,1,.21.09.25.25,0,0,1,.05.22l-.65,3.28,3.34-.08a.25.25,0,0,1,.27.25.26.26,0,0,1-.25.27l-3.68.09Z"/>
    <path class="a" d="M117.18,109.69a.27.27,0,0,1-.2-.09l-3.36-4a.29.29,0,0,1-.06-.22.26.26,0,0,1,.14-.18l4.38-2.25-3.16-3.77a.29.29,0,0,1-.06-.22.28.28,0,0,1,.14-.18l4.38-2.24-3.16-3.77a.25.25,0,0,1,0-.22.26.26,0,0,1,.13-.18L121,90a.26.26,0,1,1,.23.46l-4.37,2.24L120,96.44a.25.25,0,0,1,.05.22.28.28,0,0,1-.14.18l-4.37,2.24,3.15,3.77a.23.23,0,0,1,.06.22.31.31,0,0,1-.14.18l-4.37,2.24,3.15,3.78a.25.25,0,0,1,0,.36A.22.22,0,0,1,117.18,109.69Z"/>
    <path class="a" d="M139.61,68.34a.26.26,0,0,1-.26-.23L138.83,63,134,64.65a.31.31,0,0,1-.23,0,.24.24,0,0,1-.11-.19l-.53-5.12L128.22,61a.22.22,0,0,1-.22,0,.25.25,0,0,1-.12-.19l-.53-5.12-4.88,1.65a.27.27,0,0,1-.33-.16.28.28,0,0,1,.17-.34L127.49,55a.24.24,0,0,1,.22,0,.28.28,0,0,1,.12.2l.53,5.11,4.87-1.64a.26.26,0,0,1,.23,0,.32.32,0,0,1,.12.2l.52,5.11L139,62.4a.28.28,0,0,1,.22,0,.25.25,0,0,1,.12.19l.56,5.44a.26.26,0,0,1-.24.28Z"/>
    <path class="a" d="M109.43,52.08a.26.26,0,0,1,0-.52l1.58-.07L110.57,50a.31.31,0,0,1,0-.23.26.26,0,0,1,.2-.1l1.58-.08L112,48a.27.27,0,0,1,0-.23.25.25,0,0,1,.2-.1l1.58-.08-.42-1.52a.25.25,0,0,1,.18-.32.26.26,0,0,1,.32.18l.51,1.84a.29.29,0,0,1,0,.22.31.31,0,0,1-.2.11l-1.58.07.42,1.53a.25.25,0,0,1,0,.22.31.31,0,0,1-.2.11l-1.58.07.43,1.52a.31.31,0,0,1,0,.23.26.26,0,0,1-.2.1l-1.91.09Z"/>
    <path class="a" d="M172.05,221.08a.27.27,0,0,1-.17-.06.25.25,0,0,1-.09-.2l0-2.69-2.63.55a.25.25,0,0,1-.22-.05.26.26,0,0,1-.1-.2l0-2.69-2.63.55a.25.25,0,0,1-.22,0,.25.25,0,0,1-.09-.2l.05-3a.25.25,0,0,1,.26-.25.26.26,0,0,1,.26.26l-.05,2.69,2.63-.56a.25.25,0,0,1,.22.05.28.28,0,0,1,.1.21l0,2.69,2.63-.56a.25.25,0,0,1,.22.06.24.24,0,0,1,.09.2l0,2.69L175,220a.25.25,0,0,1,.31.2.26.26,0,0,1-.21.31l-3,.62Z"/>
    <path class="a" d="M116.45,225.11l-.1,0a.23.23,0,0,1-.15-.17l-.39-1.31-1.2.67a.25.25,0,0,1-.22,0,.23.23,0,0,1-.15-.17l-.39-1.31-1.19.67a.27.27,0,0,1-.23,0,.26.26,0,0,1-.15-.17l-.48-1.62a.26.26,0,0,1,.17-.32.27.27,0,0,1,.33.17l.39,1.31,1.19-.67a.24.24,0,0,1,.22,0,.23.23,0,0,1,.15.17l.39,1.31,1.19-.67a.27.27,0,0,1,.23,0,.28.28,0,0,1,.15.17l.39,1.31,1.2-.67a.26.26,0,0,1,.25.46l-1.48.83Z"/>
    <path class="a" d="M267.16,291.79h0a.26.26,0,0,1-.23-.29l.59-5.47a.25.25,0,0,1,.12-.19.22.22,0,0,1,.22,0l4.9,1.68.55-5.15a.25.25,0,0,1,.12-.19.29.29,0,0,1,.22,0l4.9,1.68.55-5.14a.25.25,0,0,1,.12-.19.22.22,0,0,1,.22,0l5.2,1.79a.25.25,0,0,1,.16.33.26.26,0,0,1-.33.16L279.55,279l-.55,5.14a.25.25,0,0,1-.12.19.22.22,0,0,1-.22,0l-4.9-1.68-.55,5.15a.28.28,0,0,1-.12.19.24.24,0,0,1-.22,0l-4.9-1.67-.56,5.15A.25.25,0,0,1,267.16,291.79Z"/>
    <path class="a" d="M213.29,95.35a.25.25,0,0,1-.16,0,.27.27,0,0,1,0-.36l1.84-2.48-2.83-1.25a.26.26,0,0,1-.1-.39l1.84-2.48L211,87.09a.26.26,0,0,1-.14-.17.24.24,0,0,1,0-.22l1.84-2.49L209.91,83a.26.26,0,0,1-.13-.34.27.27,0,0,1,.34-.14l3.13,1.38a.3.3,0,0,1,.15.18.26.26,0,0,1-.05.22l-1.84,2.48L214.34,88a.26.26,0,0,1,.11.39l-1.85,2.49,2.83,1.24a.28.28,0,0,1,.15.17.31.31,0,0,1,0,.23l-2,2.74A.25.25,0,0,1,213.29,95.35Z"/>
    <path class="a" d="M38.27,201.16a.27.27,0,0,1-.12,0A.26.26,0,0,1,38,201l-1.54-7.51-7,3.16a.24.24,0,0,1-.22,0,.22.22,0,0,1-.14-.18L27.6,188.9l-7,3.16a.26.26,0,0,1-.23,0,.28.28,0,0,1-.14-.18l-1.59-7.83a.25.25,0,0,1,.21-.3.26.26,0,0,1,.3.2l1.53,7.51,7-3.16a.24.24,0,0,1,.23,0,.24.24,0,0,1,.13.18L29.57,196l7-3.16a.24.24,0,0,1,.22,0,.26.26,0,0,1,.14.18l1.54,7.51,7-3.16a.27.27,0,0,1,.35.13.28.28,0,0,1-.13.35l-7.29,3.29Z"/>
    <path class="a" d="M251.15,126.82h-.07a.27.27,0,0,1-.17-.16L249,121.81l-4.3,2.92a.29.29,0,0,1-.22,0,.26.26,0,0,1-.17-.15l-1.89-4.84-4.3,2.91a.24.24,0,0,1-.22,0,.25.25,0,0,1-.16-.16l-2-5.14a.26.26,0,0,1,.49-.19l1.88,4.84,4.3-2.91a.25.25,0,0,1,.22,0,.27.27,0,0,1,.17.16l1.89,4.83,4.3-2.91a.24.24,0,0,1,.22,0,.26.26,0,0,1,.16.15l1.9,4.84,4.3-2.91a.26.26,0,1,1,.29.43l-4.57,3.09A.25.25,0,0,1,251.15,126.82Z"/>
    <path class="a" d="M271.87,249.26a.26.26,0,0,1-.22-.12.26.26,0,0,1,.09-.36l2.13-1.31-1.76-1.79a.29.29,0,0,1-.07-.22.28.28,0,0,1,.12-.19L274.3,244l-1.76-1.79a.26.26,0,0,1,0-.4l2.13-1.32L273,238.66a.26.26,0,1,1,.37-.37l2,2a.23.23,0,0,1,.07.21.22.22,0,0,1-.12.19L273.14,242l1.76,1.79a.26.26,0,0,1,.07.21.28.28,0,0,1-.12.19l-2.14,1.32,1.76,1.78a.29.29,0,0,1,.07.22.25.25,0,0,1-.12.19L272,249.22A.23.23,0,0,1,271.87,249.26Z"/>
    <path class="a" d="M73.31,154.34a.25.25,0,0,1-.18-.08.24.24,0,0,1-.08-.21l.1-1.14-1.13.15a.23.23,0,0,1-.22-.07.24.24,0,0,1-.08-.21l.11-1.14-1.14.15a.21.21,0,0,1-.21-.07.24.24,0,0,1-.08-.21l.13-1.46a.26.26,0,0,1,.52,0l-.11,1.14,1.14-.15a.26.26,0,0,1,.21.07.25.25,0,0,1,.08.21l-.1,1.14,1.13-.15a.29.29,0,0,1,.22.07.25.25,0,0,1,.08.21l-.1,1.14,1.13-.15a.27.27,0,0,1,.3.23.27.27,0,0,1-.23.29l-1.46.19Z"/>
    <path class="a" d="M250.54,113.54l-.09,0a.26.26,0,0,1-.16-.33l1.33-3.77a.28.28,0,0,1,.39-.13l3.1,1.95,1.22-3.45a.23.23,0,0,1,.16-.16.22.22,0,0,1,.22,0l3.1,2,1.22-3.46a.22.22,0,0,1,.16-.15.24.24,0,0,1,.22,0l3.37,2.13a.26.26,0,0,1,.08.36.25.25,0,0,1-.35.08l-3.1-2-1.22,3.45a.25.25,0,0,1-.16.16.25.25,0,0,1-.22,0l-3.1-2-1.22,3.45a.22.22,0,0,1-.16.16.25.25,0,0,1-.22,0l-3.1-2-1.23,3.46A.25.25,0,0,1,250.54,113.54Z"/>
  </g>
</svg>
