<svg xmlns="http://www.w3.org/2000/svg" width="24" height="19.48" viewBox="0 0 24 19.48">
  <defs>
    <style>
      .a {
        fill: #0b006a;
      }
    </style>
  </defs>
  <path class="a" d="M7.56,19.48a13.91,13.91,0,0,0,14-14c0-.22,0-.43,0-.64A9.94,9.94,0,0,0,24,2.29a9.92,9.92,0,0,1-2.83.78A5,5,0,0,0,23.34.34a9.86,9.86,0,0,1-3.13,1.2A4.93,4.93,0,0,0,11.83,6,14,14,0,0,1,1.69.89,4.92,4.92,0,0,0,3.21,7.46,5,5,0,0,1,1,6.84v.07a4.93,4.93,0,0,0,4,4.83,5.09,5.09,0,0,1-2.23.08,5,5,0,0,0,4.59,3.42,9.89,9.89,0,0,1-6.12,2.11A11.48,11.48,0,0,1,0,17.28a14,14,0,0,0,7.56,2.2"/>
</svg>
