<?xml version="1.0" encoding="utf-8"?>
<!-- Generator: Adobe Illustrator 24.1.2, SVG Export Plug-In . SVG Version: 6.00 Build 0)  -->
<svg version="1.1" id="Icons" xmlns="http://www.w3.org/2000/svg" xmlns:xlink="http://www.w3.org/1999/xlink" x="0px" y="0px"
	 viewBox="0 0 30 30" style="enable-background:new 0 0 30 30;" xml:space="preserve">
<style type="text/css">
	.st0{fill:#F16957;}
	.st1{fill:#FFFFFF;}
</style>
<g id="Behance">
	<path id="Background" class="st0" d="M0,14.4C0,7.6,0,4.2,2.1,2.1S7.6,0,14.4,0h1.2c6.8,0,10.2,0,12.3,2.1S30,7.6,30,14.4v1.2
		c0,6.8,0,10.2-2.1,12.3C25.8,30,22.4,30,15.6,30h-1.2c-6.8,0-10.2,0-12.3-2.1S0,22.4,0,15.6V14.4z"/>
	<g id="Behance-2">
		<path id="Behance-3" class="st1" d="M11.6,9.1c0.5,0,1,0,1.4,0.1c0.4,0.1,0.8,0.2,1.1,0.5c0.3,0.2,0.6,0.5,0.7,0.9
			c0.2,0.4,0.3,0.9,0.3,1.4c0,0.5-0.1,1-0.4,1.5c-0.3,0.4-0.7,0.7-1.1,1c0.6,0.2,1.2,0.5,1.5,1.1c0.3,0.6,0.5,1.2,0.5,1.9
			c0,0.5-0.1,1-0.3,1.5c-0.2,0.4-0.5,0.8-0.9,1.1c-0.4,0.3-0.8,0.5-1.3,0.6c-0.5,0.1-1,0.2-1.4,0.2H6.4V9.1H11.6z M11.3,13.8
			c0.4,0,0.8-0.1,1.1-0.3c0.3-0.3,0.5-0.7,0.4-1.1c0-0.2,0-0.5-0.1-0.7c-0.1-0.2-0.2-0.3-0.4-0.4c-0.2-0.1-0.3-0.2-0.5-0.2
			c-0.2,0-0.4-0.1-0.6-0.1H8.8v2.7L11.3,13.8L11.3,13.8z M11.4,18.7c0.2,0,0.5,0,0.7-0.1c0.2,0,0.4-0.1,0.6-0.2
			c0.2-0.1,0.3-0.3,0.4-0.5c0.1-0.2,0.2-0.5,0.1-0.8c0-0.5-0.1-1-0.5-1.3c-0.4-0.3-0.8-0.4-1.3-0.4H8.8v3.2L11.4,18.7z"/>
		<path id="Behance-4" class="st1" d="M19.1,18.7c0.4,0.4,0.9,0.5,1.4,0.5c0.4,0,0.8-0.1,1.1-0.4c0.3-0.2,0.5-0.4,0.6-0.7h1.9
			c-0.2,0.9-0.7,1.6-1.4,2.2c-0.7,0.5-1.5,0.7-2.3,0.7c-0.6,0-1.2-0.1-1.7-0.3c-0.5-0.2-0.9-0.5-1.3-0.9c-0.4-0.4-0.6-0.9-0.8-1.4
			c-0.2-0.6-0.3-1.2-0.3-1.8c0-0.6,0.1-1.2,0.3-1.8c0.5-1.6,2.1-2.7,3.8-2.7c0.6,0,1.2,0.1,1.8,0.4c0.5,0.3,0.9,0.7,1.2,1.1
			c0.3,0.5,0.6,1,0.7,1.6c0.1,0.6,0.2,1.2,0.2,1.9h-5.7C18.5,17.6,18.7,18.2,19.1,18.7z M21.6,14.3c-0.3-0.3-0.8-0.5-1.2-0.5
			c-0.3,0-0.6,0.1-0.9,0.2c-0.2,0.1-0.4,0.3-0.6,0.5c-0.1,0.2-0.2,0.4-0.3,0.6c-0.1,0.2-0.1,0.4-0.1,0.5h3.6
			C22,15.1,21.9,14.6,21.6,14.3L21.6,14.3z"/>
		<rect id="Behance-5" x="18.1" y="9.9" class="st1" width="4.5" height="1.1"/>
	</g>
</g>
</svg>
