<?xml version="1.0" encoding="utf-8"?>
<!-- Generator: Adobe Illustrator 24.1.2, SVG Export Plug-In . SVG Version: 6.00 Build 0)  -->
<svg version="1.1" id="Icons" xmlns="http://www.w3.org/2000/svg" xmlns:xlink="http://www.w3.org/1999/xlink" x="0px" y="0px"
	 viewBox="0 0 30 30" style="enable-background:new 0 0 30 30;" xml:space="preserve">
<style type="text/css">
	.st0{fill:#F16957;}
	.st1{fill:#FFFFFF;}
</style>
<g id="LinkedIn">
	<path id="Background" class="st0" d="M0,14.4C0,7.6,0,4.2,2.1,2.1S7.6,0,14.4,0h1.2c6.8,0,10.2,0,12.3,2.1S30,7.6,30,14.4v1.2
		c0,6.8,0,10.2-2.1,12.3S22.4,30,15.6,30h-1.2c-6.8,0-10.2,0-12.3-2.1S0,22.4,0,15.6V14.4z"/>
	<g id="LinkedIn-2">
		<rect id="LinkedIn-3" x="8.1" y="11.6" class="st1" width="3.2" height="10.3"/>
		<path id="LinkedIn-4" class="st1" d="M19.4,11.4c-1.2-0.1-2.4,0.6-3,1.6v-1.4h-3.1v10.3h3.2v-5.1c0-1.3,0.3-2.7,2-2.7
			s1.6,1.5,1.6,2.8v5h3.2l-0.1-5.5C23.2,13.6,22.6,11.4,19.4,11.4z"/>
		<circle id="LinkedIn-5" class="st1" cx="9.6" cy="8.4" r="1.8"/>
	</g>
</g>
</svg>
