<?xml version="1.0" encoding="utf-8"?>
<!-- Generator: Adobe Illustrator 24.1.2, SVG Export Plug-In . SVG Version: 6.00 Build 0)  -->
<svg version="1.1" id="Icons" xmlns="http://www.w3.org/2000/svg" xmlns:xlink="http://www.w3.org/1999/xlink" x="0px" y="0px"
	 viewBox="0 0 30 30" style="enable-background:new 0 0 30 30;" xml:space="preserve">
<style type="text/css">
	.st0{fill:#F16957;}
	.st1{fill:#FFFFFF;}
</style>
<g id="Facebook">
	<path id="Background" class="st0" d="M0,14.4C0,7.6,0,4.2,2.1,2.1S7.6,0,14.4,0h1.2c6.8,0,10.2,0,12.3,2.1S30,7.6,30,14.4v1.2
		c0,6.8,0,10.2-2.1,12.3S22.4,30,15.6,30h-1.2c-6.8,0-10.2,0-12.3-2.1S0,22.4,0,15.6V14.4z"/>
</g>
<path class="st1" d="M23.7,15.1c0-1.1-0.9-1.9-2-1.8c-0.5,0-0.9,0.2-1.3,0.5c-1.5-1-3.2-1.6-5-1.6l0.8-4.1l2.8,0.6
	c0.1,0.7,0.7,1.2,1.4,1.2c0.7-0.1,1.2-0.7,1.2-1.4c-0.1-0.7-0.7-1.2-1.4-1.2c-0.4,0-0.8,0.3-1,0.6l-3.2-0.6c-0.2,0-0.4,0.1-0.5,0.3
	c0,0,0,0,0,0l-1,4.5c-1.8,0-3.6,0.6-5.1,1.6c-0.8-0.7-2-0.7-2.7,0.1c-0.7,0.8-0.7,2,0.1,2.7c0.1,0.1,0.3,0.3,0.5,0.3
	c0,0.2,0,0.4,0,0.6c0,2.9,3.4,5.3,7.6,5.3s7.6-2.4,7.6-5.3c0-0.2,0-0.4,0-0.6C23.3,16.5,23.7,15.9,23.7,15.1z M10.6,16.4
	c0-0.7,0.6-1.3,1.3-1.3c0.7,0,1.3,0.6,1.3,1.3c0,0.7-0.6,1.3-1.3,1.3C11.2,17.7,10.6,17.1,10.6,16.4z M18.2,20.1L18.2,20.1
	c-0.9,0.6-2.1,1-3.2,1c-1.2,0-2.3-0.3-3.2-1c-0.1-0.1-0.1-0.4,0-0.5c0.1-0.1,0.3-0.1,0.4,0c0.8,0.6,1.7,0.9,2.7,0.8
	c1,0.1,1.9-0.2,2.7-0.8c0.1-0.1,0.4-0.1,0.5,0C18.4,19.7,18.4,19.9,18.2,20.1z M18,17.8C18,17.8,18,17.8,18,17.8L18,17.8
	c-0.8,0-1.4-0.6-1.4-1.4s0.6-1.3,1.3-1.3c0.7,0,1.3,0.6,1.3,1.3C19.3,17.2,18.8,17.8,18,17.8z"/>
</svg>
