<?xml version="1.0" encoding="utf-8"?>
<!-- Generator: Adobe Illustrator 24.1.2, SVG Export Plug-In . SVG Version: 6.00 Build 0)  -->
<svg version="1.1" id="Слой_1" xmlns="http://www.w3.org/2000/svg" xmlns:xlink="http://www.w3.org/1999/xlink" x="0px" y="0px"
	 viewBox="0 0 30 30" style="enable-background:new 0 0 30 30;" xml:space="preserve">
<style type="text/css">
	.st0{fill:#F16957;}
</style>
<path class="st0" d="M8.4,12.1c2.1,4.3,5.2,7.4,9.4,9.4c0.7-0.9,1.4-1.7,2.1-2.6c1-1.2,1.8-1.4,3.2-0.8c1.8,0.7,3.5,1.4,5.2,2.2
	c1.2,0.5,1.8,1.5,1.5,2.8c-0.4,1.8-0.9,3.5-1.4,5.3C28.2,29.5,27.2,30,26,30c-7.9-0.2-14.4-3.2-19.6-9.1C2.2,16.1,0.1,10.6,0,4.3
	c0-1.6,0.5-2.4,2.1-2.9c1.5-0.4,3.1-0.9,4.6-1.3C8-0.2,9.1,0.3,9.6,1.5c0.8,1.8,1.5,3.6,2.3,5.5c0.5,1.2,0.2,2.1-0.7,2.9
	C10.3,10.6,9.4,11.4,8.4,12.1z"/>
</svg>
