<svg xmlns="http://www.w3.org/2000/svg" width="22" height="18.36" viewBox="0 0 22 18.36">
  <defs>
    <style>
      .a {
        fill: #fff;
      }
    </style>
  </defs>
  <g>
    <path class="a" d="M11,3.78l.34.28L13.2,5.43l2.27,1.65,2.27,1.65,1,.69.07.07v8.87H13.06V12.44H8.73v5.85H3.16V9.42Z"/>
    <path class="a" d="M20.9,9.62,11,2.47c-.07,0-.07,0-.14.07l-1.37,1L6.94,5.36,4.33,7.22,2.27,8.73l-1.1.76c.07.13,0,.13-.07.13A16.86,16.86,0,0,1,0,8l.07-.06,1.51-1.1L3.51,5.43,5.16,4.26,7.42,2.61,10.24.55l.62-.48L11,0l.14.07L13.75,2,16,3.64l.14.07V.34h2.75V5.5c0,.21,0,.14.13.27l2.89,2.14L22,8c0,.07-.07.07-.07.14l-.48.69L21,9.49C21,9.56,20.9,9.56,20.9,9.62Z"/>
  </g>
</svg>
