<svg xmlns="http://www.w3.org/2000/svg" width="32" height="26.7" viewBox="0 0 32 26.7">
  <defs>
    <style>
      .a {
        fill: #fff;
      }
    </style>
  </defs>
  <g>
    <path class="a" d="M16,5.5l.5.4,2.7,2,3.3,2.4,3.3,2.4,1.4,1,.1.1V26.7H19V18.1H12.7v8.5H4.6V13.7L16,5.5Z"/>
    <path class="a" d="M30.4,14,16,3.6c-.1,0-.1,0-.2.1l-2,1.4L10.1,7.8,6.3,10.5l-3,2.2L1.7,13.8c.1.2,0,.2-.1.2S.1,11.8,0,11.6l.1-.1L2.3,9.9l2.8-2L7.5,6.2l3.3-2.4,4.1-3,.9-.7L16,0l.2.1L20,2.9l3.2,2.4.2.1V.5h4V8c0,.3,0,.2.2.4l4.2,3.1.2.1c0,.1-.1.1-.1.2l-.7,1-.7,1C30.5,13.9,30.4,13.9,30.4,14Z"/>
  </g>
</svg>
