<svg xmlns="http://www.w3.org/2000/svg" width="26.6" height="26.6" viewBox="0 0 26.6 26.6">
  <defs>
    <style>
      .a {
        fill: #fff;
      }
    </style>
  </defs>
  <g>
    <path class="a" d="M4.69,9.39v.19a2.26,2.26,0,0,0,.22.37,2.1,2.1,0,0,0,.41.38c.13.08.25.12.38.19a1.75,1.75,0,0,0,.56,0,1.53,1.53,0,0,0,.64-.08,1.5,1.5,0,0,0,.52-.26A1.6,1.6,0,0,0,8,9.26a1.28,1.28,0,0,0,0-.39V8.61a1.35,1.35,0,0,0-.19-.38,1.35,1.35,0,0,0-.18-.41,1.81,1.81,0,0,0-.41-.37L7,7.37l-.31-.11H5.9l-.31.13a1.67,1.67,0,0,0-.44.31,1.18,1.18,0,0,0-.33.47,1.63,1.63,0,0,0-.11.31.62.62,0,0,0,0,.27,1.14,1.14,0,0,0,0,.45A.41.41,0,0,1,4.69,9.39Z"/>
    <path class="a" d="M7.82,17.21a1.9,1.9,0,0,0-.2-.37,1.24,1.24,0,0,0-.36-.36,1.34,1.34,0,0,0-.36-.22H6.37a1.21,1.21,0,0,0-.38,0,2.14,2.14,0,0,0-.34.09,1.69,1.69,0,0,0-.41.24,1.62,1.62,0,0,0-.37.41,1.81,1.81,0,0,0-.18.21v.46a1.46,1.46,0,0,0,0,.51,1,1,0,0,0,.11.3,1.65,1.65,0,0,0,.32.46,1.72,1.72,0,0,0,.39.31l.2.08h1l.3-.11A1.59,1.59,0,0,0,7.36,19a1.23,1.23,0,0,0,.29-.22,1.42,1.42,0,0,0,.28-.61,1.28,1.28,0,0,0,0-.39v-.27A1.82,1.82,0,0,0,7.82,17.21Z"/>
    <path class="a" d="M7.92,12.85a1.15,1.15,0,0,0-.1-.33,1.58,1.58,0,0,0-.39-.5,1.59,1.59,0,0,0-.59-.31.81.81,0,0,0-.38,0H5.9l-.31.11a1.33,1.33,0,0,0-.38.23,1.71,1.71,0,0,0-.34.47.49.49,0,0,0,0,.17,1.67,1.67,0,0,0-.18.28v.93a1.94,1.94,0,0,0,.22.4,2.06,2.06,0,0,0,.29.3,2,2,0,0,0,.47.27A1.36,1.36,0,0,0,6,15a1.65,1.65,0,0,0,.7,0,1.46,1.46,0,0,0,.44-.2,1.53,1.53,0,0,0,.65-.68.94.94,0,0,0,.11-.32,1.41,1.41,0,0,0,0-.41,1,1,0,0,0,0-.24A.77.77,0,0,0,7.92,12.85Z"/>
    <path class="a" d="M24.43,0H2.18A2.17,2.17,0,0,0,0,2.18H0V24.43A2.17,2.17,0,0,0,2.18,26.6H24.43a2.17,2.17,0,0,0,2.17-2.17h0V2.18A2.17,2.17,0,0,0,24.43,0Zm-.72,21.53a2.19,2.19,0,0,1-2.18,2.18H5.09a2.18,2.18,0,0,1-2.18-2.18h0V5.07A2.17,2.17,0,0,1,5.09,2.9H21.53a2.18,2.18,0,0,1,2.18,2.17h0Z"/>
    <rect class="a" x="10.2" y="16.51" width="11.31" height="2.9" rx="1.11"/>
    <rect class="a" x="9.98" y="11.86" width="11.31" height="2.9" rx="1.11"/>
    <rect class="a" x="9.98" y="7.43" width="11.31" height="2.9" rx="1.11"/>
  </g>
</svg>
