<svg xmlns="http://www.w3.org/2000/svg" width="18.13" height="18.13" viewBox="0 0 18.13 18.13">
  <defs>
    <style>
      .a {
        fill: #fff;
      }
    </style>
  </defs>
  <g>
    <path class="a" d="M3.2,6.4v.13a1.28,1.28,0,0,0,.15.25A1.16,1.16,0,0,0,3.63,7l.25.13a1.27,1.27,0,0,0,.39,0,1.07,1.07,0,0,0,.43-.06,1,1,0,0,0,.36-.17,1.08,1.08,0,0,0,.39-.63.62.62,0,0,0,0-.27V5.87a.79.79,0,0,0-.13-.26.7.7,0,0,0-.12-.28,1.12,1.12,0,0,0-.28-.25L4.77,5,4.56,5H4L3.81,5a1,1,0,0,0-.3.21.75.75,0,0,0-.23.32,1.29,1.29,0,0,0-.07.21.54.54,0,0,0,0,.18.81.81,0,0,0,0,.31A.29.29,0,0,1,3.2,6.4Z"/>
    <path class="a" d="M5.33,11.73a1,1,0,0,0-.14-.25A.72.72,0,0,0,5,11.23a1.28,1.28,0,0,0-.25-.15H4.08a1,1,0,0,0-.23.06,1.56,1.56,0,0,0-.28.16,1.32,1.32,0,0,0-.25.28.79.79,0,0,0-.12.15V12a1,1,0,0,0,0,.35.68.68,0,0,0,.07.2,1.4,1.4,0,0,0,.22.32,1.71,1.71,0,0,0,.26.21l.14.05h.68l.21-.07A1.58,1.58,0,0,0,5,13a.9.9,0,0,0,.19-.15.94.94,0,0,0,.19-.42.57.57,0,0,0,0-.26v-.19A1.18,1.18,0,0,0,5.33,11.73Z"/>
    <path class="a" d="M5.4,8.76a.88.88,0,0,0-.07-.23,1.27,1.27,0,0,0-.27-.34A1,1,0,0,0,4.66,8,.57.57,0,0,0,4.4,8H4l-.21.07a.87.87,0,0,0-.26.16,1.24,1.24,0,0,0-.23.32.24.24,0,0,0,0,.12.76.76,0,0,0-.12.19v.63a.89.89,0,0,0,.15.27,1,1,0,0,0,.19.21,1.45,1.45,0,0,0,.32.18.92.92,0,0,0,.23.09,1,1,0,0,0,.48,0,1.3,1.3,0,0,0,.3-.13,1.11,1.11,0,0,0,.44-.47.57.57,0,0,0,.07-.22.66.66,0,0,0,0-.28.43.43,0,0,0,0-.16A.47.47,0,0,0,5.4,8.76Z"/>
    <path class="a" d="M16.65,0H1.49A1.48,1.48,0,0,0,0,1.47v0H0V16.65a1.48,1.48,0,0,0,1.48,1.48H16.65a1.49,1.49,0,0,0,1.48-1.48h0V1.49A1.49,1.49,0,0,0,16.65,0Zm-.49,14.67a1.51,1.51,0,0,1-1.49,1.49H3.47A1.49,1.49,0,0,1,2,14.67H2V3.45A1.47,1.47,0,0,1,3.46,2H14.67a1.49,1.49,0,0,1,1.49,1.47h0Z"/>
    <rect class="a" x="6.95" y="11.25" width="7.71" height="1.98" rx="0.76"/>
    <rect class="a" x="6.8" y="8.08" width="7.71" height="1.98" rx="0.76"/>
    <rect class="a" x="6.8" y="5.06" width="7.71" height="1.98" rx="0.76"/>
  </g>
</svg>
